<?xml version='1.0' encoding='UTF-8' standalone='no'?>
<!-- Created with Fritzing (http://www.fritzing.org/) -->
<svg xmlns="http://www.w3.org/2000/svg" width="2.68988in" x="0in" version="1.2" y="0in"  height="1.27966in" viewBox="0 0 193.671 92.1354" baseProfile="tiny" xmlns:svg="http://www.w3.org/2000/svg">
 <g  id="watermark">
  <g >
   <path fill="#8C8C8C"  d="M85.8544,89.8074L83.9294,84.2434L83.8944,84.2434c0.017,0.214,0.032,0.427,0.044,0.64c0.012,0.183,0.021,0.375,0.028,0.574c0.007,0.203,0.011,0.385,0.011,0.551l0,3.8L83.2294,89.8084L83.2294,83.4524l1.199,0l1.791,5.181l0.025,0l1.8,-5.181L89.2444,83.4524l0,6.354L88.4354,89.8064l0,-3.854c0,-0.15,0.003,-0.324,0.009,-0.518s0.013,-0.38,0.021,-0.557c0.012,-0.207,0.021,-0.416,0.029,-0.625L88.4624,84.2524L86.5184,89.8074L85.8544,89.8074z"/>
   <path fill="#8C8C8C"  d="M93.5544,89.8074l-0.16,-0.661l-0.035,0c-0.095,0.131,-0.19,0.243,-0.286,0.338c-0.095,0.095,-0.2,0.172,-0.313,0.231c-0.113,0.062,-0.239,0.106,-0.378,0.136c-0.141,0.028,-0.3,0.042,-0.482,0.042c-0.2,0,-0.384,-0.026,-0.552,-0.084c-0.168,-0.057,-0.314,-0.144,-0.438,-0.261c-0.122,-0.116,-0.219,-0.265,-0.288,-0.443S90.5184,88.7174,90.5184,88.4724c0,-0.475,0.167,-0.841,0.501,-1.095c0.335,-0.256,0.845,-0.394,1.528,-0.418l0.799,-0.029l0,-0.301c0,-0.193,-0.021,-0.356,-0.063,-0.486s-0.103,-0.234,-0.183,-0.314s-0.178,-0.138,-0.295,-0.172c-0.117,-0.035,-0.251,-0.052,-0.402,-0.052c-0.241,0,-0.464,0.034,-0.671,0.104c-0.207,0.068,-0.407,0.152,-0.597,0.25L90.8564,85.3664c0.214,-0.117,0.453,-0.217,0.717,-0.298c0.264,-0.079,0.54,-0.12,0.83,-0.12c0.296,0,0.551,0.029,0.768,0.09c0.216,0.059,0.395,0.151,0.534,0.28c0.141,0.13,0.247,0.294,0.316,0.494c0.07,0.199,0.104,0.44,0.104,0.726l0,3.269L93.5544,89.8074L93.5544,89.8074zM92.1034,89.2564c0.178,0,0.341,-0.028,0.491,-0.084c0.149,-0.055,0.282,-0.138,0.391,-0.249c0.11,-0.111,0.196,-0.252,0.258,-0.422c0.063,-0.17,0.094,-0.369,0.094,-0.599l0,-0.43l-0.621,0.03c-0.262,0.012,-0.48,0.041,-0.656,0.086c-0.175,0.047,-0.317,0.113,-0.423,0.193c-0.105,0.084,-0.183,0.185,-0.229,0.301c-0.046,0.117,-0.068,0.25,-0.068,0.398c0,0.268,0.069,0.462,0.211,0.586C91.6904,89.1934,91.8744,89.2564,92.1034,89.2564z"/>
   <path fill="#8C8C8C"  d="M98.5364,89.1684l-0.034,0c-0.063,0.099,-0.139,0.191,-0.224,0.281c-0.085,0.088,-0.184,0.165,-0.296,0.231c-0.111,0.066,-0.237,0.118,-0.376,0.156c-0.139,0.037,-0.295,0.056,-0.47,0.056c-0.271,0,-0.517,-0.051,-0.738,-0.154c-0.223,-0.105,-0.416,-0.262,-0.575,-0.469s-0.282,-0.464,-0.369,-0.771c-0.087,-0.309,-0.13,-0.664,-0.13,-1.069c0,-0.408,0.043,-0.767,0.13,-1.076c0.086,-0.31,0.209,-0.567,0.369,-0.774c0.159,-0.209,0.352,-0.367,0.575,-0.473c0.222,-0.105,0.469,-0.158,0.738,-0.158c0.171,0,0.327,0.02,0.466,0.057s0.264,0.088,0.376,0.152c0.112,0.063,0.211,0.137,0.297,0.221s0.163,0.172,0.227,0.266l0.052,0c-0.009,-0.1,-0.018,-0.191,-0.026,-0.283c-0.006,-0.074,-0.012,-0.152,-0.018,-0.232c-0.005,-0.078,-0.009,-0.143,-0.009,-0.188L98.5014,83.0444l0.792,0l0,6.763l-0.641,0L98.5364,89.1684zM97.2884,89.2394c0.221,0,0.407,-0.033,0.56,-0.102c0.151,-0.065,0.274,-0.168,0.37,-0.304c0.094,-0.136,0.163,-0.308,0.209,-0.512c0.044,-0.204,0.069,-0.442,0.076,-0.716l0,-0.177c0,-0.292,-0.02,-0.552,-0.059,-0.78c-0.04,-0.229,-0.105,-0.418,-0.2,-0.574c-0.094,-0.154,-0.219,-0.271,-0.376,-0.351c-0.156,-0.08,-0.352,-0.119,-0.586,-0.119c-0.391,0,-0.679,0.157,-0.861,0.474c-0.185,0.315,-0.277,0.771,-0.277,1.359c0,0.605,0.092,1.058,0.277,1.354C96.6014,89.0894,96.8914,89.2394,97.2884,89.2394z"/>
   <path fill="#8C8C8C"  d="M102.69,89.8934c-0.318,0,-0.609,-0.053,-0.874,-0.16c-0.263,-0.106,-0.49,-0.264,-0.68,-0.469c-0.19,-0.207,-0.338,-0.461,-0.442,-0.766c-0.104,-0.306,-0.156,-0.651,-0.156,-1.045s0.049,-0.744,0.144,-1.055c0.096,-0.311,0.229,-0.574,0.405,-0.789c0.174,-0.216,0.382,-0.381,0.623,-0.492c0.241,-0.113,0.51,-0.17,0.802,-0.17c0.287,0,0.545,0.051,0.772,0.153c0.229,0.104,0.423,0.248,0.583,0.435c0.159,0.188,0.282,0.412,0.367,0.674c0.087,0.263,0.13,0.554,0.13,0.873l0,0.49l-3.008,0c0.015,0.559,0.133,0.971,0.354,1.234c0.222,0.263,0.551,0.396,0.987,0.396c0.149,0,0.285,-0.008,0.411,-0.021s0.248,-0.035,0.365,-0.063c0.118,-0.026,0.23,-0.063,0.342,-0.104s0.222,-0.089,0.334,-0.142l0,0.704c-0.116,0.055,-0.229,0.104,-0.341,0.144c-0.112,0.041,-0.226,0.074,-0.343,0.102c-0.117,0.024,-0.239,0.045,-0.365,0.056S102.839,89.8934,102.69,89.8934zM102.495,85.6054c-0.331,0,-0.592,0.112,-0.783,0.339c-0.193,0.227,-0.307,0.555,-0.338,0.985l2.14,0c0,-0.196,-0.021,-0.378,-0.06,-0.541c-0.039,-0.164,-0.1,-0.304,-0.183,-0.419s-0.187,-0.205,-0.315,-0.27C102.828,85.6354,102.675,85.6054,102.495,85.6054z"/>
   <path fill="#8C8C8C"  d="M111.504,89.8074l-0.729,-2.678c-0.012,-0.053,-0.026,-0.111,-0.044,-0.176c-0.017,-0.065,-0.034,-0.136,-0.051,-0.207c-0.019,-0.072,-0.036,-0.146,-0.055,-0.223c-0.02,-0.074,-0.037,-0.148,-0.055,-0.222c-0.041,-0.169,-0.083,-0.341,-0.126,-0.521l-0.024,0c-0.041,0.182,-0.08,0.356,-0.117,0.524c-0.032,0.146,-0.066,0.294,-0.104,0.448c-0.037,0.152,-0.069,0.283,-0.103,0.391l-0.75,2.66l-0.917,0l-1.221,-4.771l0.83,0l0.57,2.539c0.029,0.129,0.059,0.27,0.086,0.423c0.028,0.151,0.057,0.303,0.082,0.452c0.026,0.148,0.05,0.288,0.07,0.421c0.02,0.132,0.037,0.238,0.049,0.322l0.025,0c0.015,-0.074,0.034,-0.177,0.059,-0.302c0.025,-0.126,0.052,-0.26,0.083,-0.399c0.031,-0.141,0.063,-0.28,0.093,-0.417c0.032,-0.139,0.063,-0.254,0.091,-0.351l0.778,-2.69l0.853,0l0.748,2.69c0.025,0.098,0.056,0.215,0.089,0.348c0.033,0.135,0.065,0.27,0.098,0.407c0.032,0.139,0.061,0.271,0.087,0.397c0.025,0.127,0.045,0.231,0.056,0.315l0.026,0c0.01,-0.074,0.022,-0.177,0.042,-0.302c0.02,-0.126,0.042,-0.265,0.067,-0.415c0.025,-0.149,0.054,-0.306,0.084,-0.464c0.03,-0.157,0.062,-0.306,0.094,-0.44L112.864,85.0344l0.809,0l-1.234,4.771L111.504,89.8054L111.504,89.8074z"/>
   <path fill="#8C8C8C"  d="M114.459,83.7444c0,-0.175,0.045,-0.3,0.133,-0.379c0.088,-0.078,0.197,-0.117,0.328,-0.117c0.063,0,0.123,0.011,0.181,0.028c0.056,0.019,0.104,0.049,0.147,0.089c0.042,0.041,0.075,0.092,0.101,0.154c0.023,0.063,0.037,0.137,0.037,0.224c0,0.168,-0.045,0.293,-0.138,0.376c-0.092,0.083,-0.2,0.123,-0.327,0.123c-0.131,0,-0.24,-0.04,-0.328,-0.12C114.505,84.0414,114.459,83.9144,114.459,83.7444zM115.311,89.8074l-0.791,0L114.52,85.0344l0.791,0L115.311,89.8074z"/>
   <path fill="#8C8C8C"  d="M118.267,89.2464c0.052,0,0.111,-0.003,0.176,-0.01c0.066,-0.006,0.128,-0.013,0.189,-0.021c0.061,-0.009,0.116,-0.019,0.167,-0.031c0.051,-0.011,0.089,-0.021,0.115,-0.028l0,0.6c-0.037,0.017,-0.085,0.035,-0.144,0.052c-0.059,0.018,-0.122,0.033,-0.191,0.046c-0.068,0.015,-0.142,0.022,-0.217,0.03s-0.148,0.011,-0.221,0.011c-0.18,0,-0.347,-0.021,-0.5,-0.068c-0.153,-0.048,-0.286,-0.126,-0.397,-0.239c-0.111,-0.112,-0.198,-0.267,-0.263,-0.458c-0.063,-0.192,-0.095,-0.437,-0.095,-0.729L116.886,85.6304l-0.674,0L116.212,85.2784l0.673,-0.339l0.339,-0.999l0.456,0l0,1.096l1.199,0l0,0.596l-1.199,0l0,2.769c0,0.281,0.045,0.492,0.137,0.636C117.909,89.1754,118.058,89.2464,118.267,89.2464z"/>
   <path fill="#8C8C8C"  d="M122.822,89.8074l0,-3.073c0,-0.377,-0.076,-0.659,-0.228,-0.848c-0.152,-0.188,-0.391,-0.282,-0.715,-0.282c-0.234,0,-0.433,0.037,-0.592,0.111c-0.158,0.076,-0.286,0.188,-0.384,0.336c-0.097,0.148,-0.166,0.328,-0.208,0.544c-0.042,0.214,-0.063,0.461,-0.063,0.739l0,2.473l-0.791,0L119.841,83.0444l0.791,0l0,2.008l-0.034,0.626l0.044,0c0.072,-0.124,0.158,-0.232,0.258,-0.323s0.209,-0.167,0.328,-0.229c0.118,-0.061,0.245,-0.104,0.378,-0.135c0.133,-0.027,0.27,-0.043,0.408,-0.043c0.531,0,0.93,0.139,1.198,0.416c0.268,0.275,0.401,0.719,0.401,1.326l0,3.117L122.822,89.8074L122.822,89.8074z"/>
  </g>
  <g >
   <path fill="#8C8C8C"  d="M144.582,89.7914l-1.324,0L143.258,83.4374l3.642,0l0,1.104l-2.316,0l0,1.639l2.156,0l0,1.1l-2.156,0L144.582,89.7914L144.582,89.7914z"/>
   <path fill="#8C8C8C"  d="M150.615,84.8414c0.035,0,0.074,0.002,0.116,0.002c0.042,0.002,0.083,0.006,0.12,0.01c0.041,0.005,0.076,0.009,0.11,0.014c0.031,0.004,0.059,0.01,0.075,0.016l0,1.244c-0.022,-0.008,-0.056,-0.012,-0.095,-0.018c-0.04,-0.007,-0.083,-0.012,-0.128,-0.018c-0.045,-0.004,-0.09,-0.006,-0.133,-0.008c-0.044,-0.002,-0.08,-0.002,-0.108,-0.002c-0.171,0,-0.328,0.021,-0.472,0.064c-0.146,0.043,-0.269,0.113,-0.37,0.211s-0.183,0.225,-0.239,0.383c-0.057,0.157,-0.084,0.352,-0.084,0.581l0,2.474l-1.326,0L148.081,84.9324l1.005,0l0.194,0.73l0.066,0c0.068,-0.125,0.145,-0.238,0.226,-0.34c0.081,-0.103,0.172,-0.189,0.272,-0.259c0.1,-0.071,0.212,-0.126,0.338,-0.165C150.308,84.8614,150.454,84.8414,150.615,84.8414z"/>
   <path fill="#8C8C8C"  d="M151.933,83.6764c0,-0.125,0.018,-0.228,0.056,-0.311c0.038,-0.084,0.089,-0.15,0.154,-0.2c0.065,-0.051,0.142,-0.086,0.229,-0.106c0.088,-0.02,0.184,-0.03,0.281,-0.03c0.099,0,0.191,0.01,0.277,0.03c0.088,0.02,0.164,0.055,0.229,0.106c0.066,0.05,0.117,0.116,0.156,0.2c0.04,0.083,0.059,0.186,0.059,0.311c0,0.122,-0.019,0.225,-0.059,0.309c-0.039,0.084,-0.09,0.151,-0.156,0.203c-0.063,0.05,-0.142,0.086,-0.229,0.108c-0.086,0.021,-0.18,0.032,-0.277,0.032c-0.099,0,-0.191,-0.012,-0.281,-0.032c-0.088,-0.021,-0.164,-0.059,-0.229,-0.108c-0.065,-0.051,-0.116,-0.119,-0.154,-0.203C151.952,83.9014,151.933,83.7984,151.933,83.6764zM153.315,89.7914l-1.325,0L151.99,84.9324l1.325,0L153.315,89.7914z"/>
   <path fill="#8C8C8C"  d="M156.724,88.8224c0.13,0,0.254,-0.016,0.371,-0.045c0.117,-0.027,0.235,-0.064,0.357,-0.107l0,0.986c-0.124,0.063,-0.278,0.116,-0.463,0.157c-0.184,0.042,-0.385,0.063,-0.603,0.063c-0.211,0,-0.408,-0.024,-0.59,-0.073c-0.185,-0.05,-0.342,-0.137,-0.476,-0.259c-0.133,-0.123,-0.237,-0.288,-0.313,-0.495c-0.077,-0.208,-0.114,-0.468,-0.114,-0.781L154.893,85.9274l-0.636,0L154.257,85.3664l0.729,-0.443l0.383,-1.024l0.848,0l0,1.034l1.184,0l0,0.995l-1.184,0l0,2.343c0,0.188,0.048,0.327,0.141,0.417C156.451,88.7774,156.573,88.8224,156.724,88.8224z"/>
   <path fill="#8C8C8C"  d="M161.597,89.7914L158.024,89.7914l0,-0.781l1.985,-3.064l-1.853,0L158.156,84.9324l3.355,0l0,0.859l-1.92,2.985l2.004,0L161.597,89.7914L161.597,89.7914z"/>
   <path fill="#8C8C8C"  d="M162.536,83.6764c0,-0.125,0.02,-0.228,0.057,-0.311c0.038,-0.084,0.09,-0.15,0.153,-0.2c0.065,-0.051,0.144,-0.086,0.23,-0.106s0.182,-0.03,0.28,-0.03c0.098,0,0.19,0.01,0.277,0.03c0.088,0.02,0.164,0.055,0.229,0.106c0.064,0.05,0.117,0.116,0.156,0.2c0.038,0.083,0.059,0.186,0.059,0.311c0,0.122,-0.021,0.225,-0.059,0.309c-0.039,0.084,-0.092,0.151,-0.156,0.203c-0.064,0.05,-0.143,0.086,-0.229,0.108c-0.086,0.021,-0.18,0.032,-0.277,0.032c-0.099,0,-0.192,-0.012,-0.28,-0.032c-0.088,-0.021,-0.165,-0.059,-0.23,-0.108c-0.063,-0.051,-0.115,-0.119,-0.153,-0.203C162.555,83.9014,162.536,83.7984,162.536,83.6764zM163.918,89.7914L162.594,89.7914L162.594,84.9324l1.324,0L163.918,89.7914z"/>
   <path fill="#8C8C8C"  d="M169.568,89.7914L168.244,89.7914l0,-2.839c0,-0.351,-0.053,-0.613,-0.158,-0.787c-0.105,-0.176,-0.274,-0.265,-0.508,-0.265c-0.173,0,-0.317,0.035,-0.434,0.104c-0.116,0.07,-0.209,0.173,-0.276,0.31c-0.066,0.136,-0.115,0.304,-0.146,0.504c-0.029,0.2,-0.043,0.429,-0.043,0.687l0,2.286L165.354,89.7914L165.354,84.9324l1.012,0l0.181,0.621l0.073,0c0.069,-0.124,0.153,-0.23,0.253,-0.321c0.102,-0.089,0.21,-0.163,0.328,-0.221s0.245,-0.103,0.378,-0.128c0.136,-0.028,0.271,-0.043,0.409,-0.043c0.237,0,0.454,0.033,0.647,0.104c0.194,0.067,0.36,0.174,0.5,0.318c0.141,0.146,0.247,0.328,0.321,0.555c0.075,0.225,0.113,0.492,0.113,0.807l0,3.168L169.568,89.7914L169.568,89.7914z"/>
   <path fill="#8C8C8C"  d="M174.998,84.9414l0,0.722l-0.708,0.221c0.059,0.1,0.1,0.201,0.122,0.308c0.021,0.106,0.033,0.22,0.033,0.343c0,0.246,-0.039,0.471,-0.116,0.676c-0.078,0.203,-0.193,0.379,-0.349,0.522c-0.152,0.146,-0.346,0.258,-0.578,0.337c-0.23,0.08,-0.5,0.119,-0.808,0.119c-0.067,0,-0.141,-0.003,-0.218,-0.012c-0.078,-0.007,-0.137,-0.015,-0.175,-0.021c-0.057,0.049,-0.104,0.101,-0.137,0.152c-0.033,0.054,-0.049,0.117,-0.049,0.193c0,0.061,0.018,0.108,0.056,0.146s0.087,0.065,0.147,0.087c0.06,0.022,0.133,0.036,0.214,0.044s0.165,0.012,0.251,0.012l0.756,0c0.236,0,0.446,0.025,0.631,0.081c0.186,0.055,0.342,0.135,0.472,0.246c0.129,0.109,0.229,0.249,0.299,0.419c0.069,0.169,0.104,0.372,0.104,0.605c0,0.275,-0.054,0.523,-0.164,0.745c-0.109,0.224,-0.274,0.41,-0.494,0.565c-0.219,0.154,-0.488,0.273,-0.813,0.355c-0.324,0.082,-0.699,0.123,-1.126,0.123c-0.329,0,-0.618,-0.031,-0.864,-0.094c-0.247,-0.063,-0.451,-0.15,-0.617,-0.27c-0.165,-0.116,-0.288,-0.258,-0.371,-0.424c-0.084,-0.164,-0.125,-0.353,-0.125,-0.561c0,-0.177,0.031,-0.33,0.093,-0.46c0.061,-0.131,0.143,-0.243,0.243,-0.336c0.102,-0.093,0.218,-0.168,0.347,-0.227c0.129,-0.058,0.262,-0.103,0.396,-0.134c-0.061,-0.026,-0.12,-0.063,-0.181,-0.109c-0.059,-0.047,-0.113,-0.1,-0.161,-0.159c-0.047,-0.063,-0.086,-0.129,-0.116,-0.203c-0.031,-0.072,-0.047,-0.15,-0.047,-0.23c0,-0.093,0.015,-0.178,0.04,-0.252c0.029,-0.076,0.068,-0.146,0.12,-0.212c0.052,-0.064,0.117,-0.126,0.196,-0.184c0.078,-0.06,0.166,-0.117,0.264,-0.18c-0.254,-0.11,-0.456,-0.287,-0.604,-0.53c-0.15,-0.244,-0.225,-0.529,-0.225,-0.859c0,-0.26,0.04,-0.494,0.121,-0.699c0.081,-0.207,0.2,-0.381,0.356,-0.523c0.155,-0.144,0.35,-0.252,0.582,-0.328c0.231,-0.076,0.499,-0.113,0.801,-0.113c0.057,0,0.122,0.004,0.194,0.012s0.145,0.018,0.216,0.025c0.07,0.01,0.137,0.021,0.196,0.033c0.061,0.01,0.109,0.021,0.146,0.029L174.998,84.9414L174.998,84.9414zM171.521,90.4784c0,0.073,0.017,0.145,0.047,0.211c0.03,0.068,0.08,0.129,0.15,0.182c0.068,0.052,0.16,0.094,0.272,0.124c0.113,0.03,0.252,0.046,0.417,0.046c0.452,0,0.792,-0.063,1.021,-0.191c0.229,-0.127,0.343,-0.298,0.343,-0.514c0,-0.183,-0.07,-0.304,-0.213,-0.364c-0.143,-0.06,-0.361,-0.091,-0.66,-0.091l-0.613,0c-0.077,0,-0.162,0.009,-0.252,0.027c-0.09,0.018,-0.172,0.052,-0.248,0.099c-0.075,0.046,-0.139,0.108,-0.188,0.184S171.521,90.3634,171.521,90.4784zM172,86.5234c0,0.263,0.049,0.468,0.147,0.612c0.098,0.146,0.248,0.217,0.447,0.217c0.209,0,0.358,-0.07,0.451,-0.217c0.094,-0.145,0.14,-0.35,0.14,-0.612c0,-0.261,-0.046,-0.468,-0.137,-0.622c-0.092,-0.152,-0.243,-0.229,-0.454,-0.229C172.197,85.6714,172,85.9544,172,86.5234z"/>
   <path fill="#8C8C8C"  d="M175.748,89.1704c0,-0.136,0.02,-0.251,0.059,-0.346c0.04,-0.095,0.094,-0.172,0.163,-0.229c0.069,-0.058,0.149,-0.101,0.244,-0.126c0.092,-0.026,0.191,-0.039,0.299,-0.039c0.102,0,0.198,0.013,0.289,0.039c0.092,0.025,0.172,0.068,0.242,0.126c0.068,0.057,0.123,0.134,0.163,0.229c0.041,0.095,0.062,0.21,0.062,0.346c0,0.13,-0.021,0.242,-0.062,0.335c-0.04,0.093,-0.095,0.17,-0.163,0.229c-0.07,0.062,-0.15,0.104,-0.242,0.133c-0.091,0.027,-0.188,0.042,-0.289,0.042c-0.106,0,-0.207,-0.015,-0.299,-0.042c-0.095,-0.027,-0.175,-0.071,-0.244,-0.133c-0.069,-0.061,-0.123,-0.138,-0.163,-0.229C175.766,89.4124,175.748,89.3004,175.748,89.1704z"/>
   <path fill="#8C8C8C"  d="M182.707,87.3524c0,0.406,-0.052,0.767,-0.153,1.079c-0.104,0.313,-0.251,0.576,-0.443,0.79c-0.192,0.215,-0.428,0.378,-0.704,0.489c-0.277,0.111,-0.587,0.167,-0.933,0.167c-0.321,0,-0.617,-0.056,-0.886,-0.167c-0.271,-0.112,-0.503,-0.274,-0.698,-0.489c-0.195,-0.214,-0.35,-0.479,-0.458,-0.79c-0.11,-0.313,-0.165,-0.673,-0.165,-1.079c0,-0.402,0.051,-0.76,0.154,-1.072c0.103,-0.314,0.25,-0.576,0.442,-0.789C179.055,85.2774,179.289,85.1164,179.564,85.0074s0.587,-0.164,0.937,-0.164c0.319,0,0.615,0.055,0.886,0.164c0.27,0.111,0.502,0.271,0.695,0.484c0.197,0.213,0.351,0.477,0.459,0.789C182.651,86.5924,182.707,86.9504,182.707,87.3524zM179.621,87.3524c0,0.484,0.068,0.851,0.205,1.093c0.137,0.246,0.357,0.368,0.664,0.368c0.306,0,0.524,-0.123,0.66,-0.37c0.137,-0.245,0.205,-0.608,0.205,-1.091s-0.068,-0.846,-0.205,-1.084c-0.136,-0.238,-0.358,-0.357,-0.668,-0.357c-0.305,0,-0.523,0.119,-0.659,0.357C179.688,86.5074,179.621,86.8704,179.621,87.3524z"/>
   <path fill="#8C8C8C"  d="M186.427,84.8414c0.035,0,0.073,0.002,0.115,0.002c0.042,0.002,0.083,0.006,0.12,0.01c0.04,0.005,0.076,0.009,0.109,0.014c0.033,0.004,0.059,0.01,0.076,0.016l0,1.244c-0.023,-0.008,-0.055,-0.012,-0.095,-0.018c-0.041,-0.007,-0.083,-0.012,-0.13,-0.018c-0.045,-0.004,-0.089,-0.006,-0.132,-0.008c-0.045,-0.002,-0.08,-0.002,-0.108,-0.002c-0.171,0,-0.328,0.021,-0.473,0.064c-0.144,0.043,-0.267,0.113,-0.37,0.211c-0.102,0.098,-0.182,0.225,-0.237,0.383c-0.058,0.157,-0.084,0.352,-0.084,0.581l0,2.474l-1.326,0L183.892,84.9324l1.004,0l0.195,0.73l0.065,0c0.068,-0.125,0.146,-0.238,0.226,-0.34c0.081,-0.103,0.172,-0.189,0.271,-0.259c0.101,-0.071,0.213,-0.126,0.339,-0.165C186.121,84.8614,186.265,84.8414,186.427,84.8414z"/>
   <path fill="#8C8C8C"  d="M191.735,84.9414l0,0.722l-0.708,0.221c0.058,0.1,0.099,0.201,0.121,0.308s0.034,0.22,0.034,0.343c0,0.246,-0.039,0.471,-0.116,0.676c-0.079,0.203,-0.194,0.379,-0.349,0.522c-0.153,0.146,-0.348,0.258,-0.578,0.337c-0.232,0.08,-0.501,0.119,-0.809,0.119c-0.067,0,-0.141,-0.003,-0.219,-0.012c-0.078,-0.007,-0.135,-0.015,-0.173,-0.021c-0.058,0.049,-0.104,0.101,-0.137,0.152c-0.034,0.054,-0.05,0.117,-0.05,0.193c0,0.061,0.019,0.108,0.057,0.146c0.037,0.037,0.086,0.065,0.146,0.087c0.062,0.021,0.133,0.036,0.215,0.044c0.08,0.008,0.164,0.012,0.251,0.012l0.756,0c0.234,0,0.445,0.025,0.63,0.081c0.186,0.055,0.343,0.135,0.472,0.246c0.129,0.109,0.229,0.249,0.298,0.419c0.07,0.169,0.104,0.372,0.104,0.605c0,0.275,-0.054,0.523,-0.165,0.745c-0.109,0.224,-0.275,0.41,-0.493,0.565c-0.219,0.154,-0.489,0.273,-0.815,0.355c-0.323,0.082,-0.698,0.123,-1.125,0.123c-0.329,0,-0.617,-0.031,-0.864,-0.094c-0.246,-0.063,-0.451,-0.15,-0.617,-0.27c-0.164,-0.116,-0.287,-0.258,-0.371,-0.424c-0.083,-0.164,-0.124,-0.353,-0.124,-0.561c0,-0.177,0.03,-0.33,0.091,-0.46c0.063,-0.131,0.144,-0.243,0.244,-0.336c0.103,-0.093,0.217,-0.168,0.346,-0.227c0.129,-0.058,0.263,-0.103,0.398,-0.134c-0.062,-0.026,-0.121,-0.063,-0.182,-0.109c-0.06,-0.047,-0.113,-0.1,-0.16,-0.159c-0.047,-0.063,-0.087,-0.129,-0.117,-0.203c-0.03,-0.073,-0.045,-0.151,-0.045,-0.231c0,-0.093,0.014,-0.178,0.04,-0.252c0.027,-0.076,0.067,-0.146,0.12,-0.212c0.051,-0.064,0.117,-0.126,0.194,-0.184c0.078,-0.06,0.166,-0.117,0.266,-0.18c-0.255,-0.109,-0.456,-0.287,-0.606,-0.529c-0.148,-0.244,-0.223,-0.531,-0.223,-0.861c0,-0.26,0.039,-0.493,0.121,-0.698c0.081,-0.207,0.199,-0.382,0.354,-0.524c0.156,-0.143,0.351,-0.252,0.583,-0.328c0.231,-0.074,0.499,-0.111,0.8,-0.111c0.059,0,0.123,0.003,0.195,0.011s0.146,0.017,0.215,0.026c0.072,0.009,0.138,0.021,0.198,0.031c0.062,0.012,0.108,0.021,0.145,0.03L191.735,84.9404L191.735,84.9414zM188.259,90.4784c0,0.073,0.017,0.145,0.046,0.211c0.031,0.068,0.081,0.129,0.149,0.182c0.07,0.052,0.161,0.094,0.273,0.124c0.114,0.03,0.252,0.046,0.418,0.046c0.451,0,0.792,-0.063,1.021,-0.191c0.229,-0.127,0.343,-0.298,0.343,-0.514c0,-0.183,-0.071,-0.304,-0.214,-0.364s-0.361,-0.091,-0.66,-0.091l-0.612,0c-0.079,0,-0.163,0.009,-0.252,0.027c-0.09,0.019,-0.173,0.052,-0.248,0.099c-0.076,0.046,-0.139,0.108,-0.188,0.184C188.285,90.2654,188.259,90.3634,188.259,90.4784zM188.736,86.5234c0,0.263,0.049,0.468,0.148,0.612c0.099,0.146,0.248,0.217,0.447,0.217c0.209,0,0.358,-0.07,0.451,-0.217c0.094,-0.145,0.141,-0.35,0.141,-0.612c0,-0.261,-0.046,-0.468,-0.138,-0.622c-0.092,-0.152,-0.243,-0.229,-0.454,-0.229C188.934,85.6714,188.736,85.9544,188.736,86.5234z"/>
  </g>
  <g >
   <path fill="#8C8C8C"  d="M137.329,82.0614l-8.146,0c-0.532,0,-0.965,0.432,-0.965,0.964l0,8.146c0,0.531,0.433,0.964,0.965,0.964l5.55,0l3.557,-3.558L138.29,83.0254C138.293,82.4924,137.861,82.0614,137.329,82.0614zM135.652,85.7904l-1.075,0l0,0.401l1.075,0l0,1.601l-2.196,0l0,2.058l-2.572,0l0,-4.67l0.988,-0.99l3.779,0l0,1.603l0.001,0L135.652,85.7904z"/>
  </g>
 </g>
 <g partID="933260">
  <g transform="translate(39.3085,10.9176)">
   <g  id="breadboardbreadboard">
    <path fill="#deb675"  stroke="none" fill-opacity="1" id="boardoutline" stroke-width="0" d="M0,0L122.4,0,122.4,57.6,0,57.6zM5.94,7.2a1.26,1.26,0,1,0,2.52,0,1.26,1.26,0,1,0,-2.52,0zM13.14,7.2a1.26,1.26,0,1,0,2.52,0,1.26,1.26,0,1,0,-2.52,0zM20.34,7.2a1.26,1.26,0,1,0,2.52,0,1.26,1.26,0,1,0,-2.52,0zM27.54,7.2a1.26,1.26,0,1,0,2.52,0,1.26,1.26,0,1,0,-2.52,0zM34.74,7.2a1.26,1.26,0,1,0,2.52,0,1.26,1.26,0,1,0,-2.52,0zM41.94,7.2a1.26,1.26,0,1,0,2.52,0,1.26,1.26,0,1,0,-2.52,0zM49.14,7.2a1.26,1.26,0,1,0,2.52,0,1.26,1.26,0,1,0,-2.52,0zM56.34,7.2a1.26,1.26,0,1,0,2.52,0,1.26,1.26,0,1,0,-2.52,0zM63.54,7.2a1.26,1.26,0,1,0,2.52,0,1.26,1.26,0,1,0,-2.52,0zM70.74,7.2a1.26,1.26,0,1,0,2.52,0,1.26,1.26,0,1,0,-2.52,0zM77.94,7.2a1.26,1.26,0,1,0,2.52,0,1.26,1.26,0,1,0,-2.52,0zM85.14,7.2a1.26,1.26,0,1,0,2.52,0,1.26,1.26,0,1,0,-2.52,0zM92.34,7.2a1.26,1.26,0,1,0,2.52,0,1.26,1.26,0,1,0,-2.52,0zM99.54,7.2a1.26,1.26,0,1,0,2.52,0,1.26,1.26,0,1,0,-2.52,0zM106.74,7.2a1.26,1.26,0,1,0,2.52,0,1.26,1.26,0,1,0,-2.52,0zM113.94,7.2a1.26,1.26,0,1,0,2.52,0,1.26,1.26,0,1,0,-2.52,0zM5.94,14.4a1.26,1.26,0,1,0,2.52,0,1.26,1.26,0,1,0,-2.52,0zM13.14,14.4a1.26,1.26,0,1,0,2.52,0,1.26,1.26,0,1,0,-2.52,0zM20.34,14.4a1.26,1.26,0,1,0,2.52,0,1.26,1.26,0,1,0,-2.52,0zM27.54,14.4a1.26,1.26,0,1,0,2.52,0,1.26,1.26,0,1,0,-2.52,0zM34.74,14.4a1.26,1.26,0,1,0,2.52,0,1.26,1.26,0,1,0,-2.52,0zM41.94,14.4a1.26,1.26,0,1,0,2.52,0,1.26,1.26,0,1,0,-2.52,0zM49.14,14.4a1.26,1.26,0,1,0,2.52,0,1.26,1.26,0,1,0,-2.52,0zM56.34,14.4a1.26,1.26,0,1,0,2.52,0,1.26,1.26,0,1,0,-2.52,0zM63.54,14.4a1.26,1.26,0,1,0,2.52,0,1.26,1.26,0,1,0,-2.52,0zM70.74,14.4a1.26,1.26,0,1,0,2.52,0,1.26,1.26,0,1,0,-2.52,0zM77.94,14.4a1.26,1.26,0,1,0,2.52,0,1.26,1.26,0,1,0,-2.52,0zM85.14,14.4a1.26,1.26,0,1,0,2.52,0,1.26,1.26,0,1,0,-2.52,0zM92.34,14.4a1.26,1.26,0,1,0,2.52,0,1.26,1.26,0,1,0,-2.52,0zM99.54,14.4a1.26,1.26,0,1,0,2.52,0,1.26,1.26,0,1,0,-2.52,0zM106.74,14.4a1.26,1.26,0,1,0,2.52,0,1.26,1.26,0,1,0,-2.52,0zM113.94,14.4a1.26,1.26,0,1,0,2.52,0,1.26,1.26,0,1,0,-2.52,0zM5.94,21.6a1.26,1.26,0,1,0,2.52,0,1.26,1.26,0,1,0,-2.52,0zM13.14,21.6a1.26,1.26,0,1,0,2.52,0,1.26,1.26,0,1,0,-2.52,0zM20.34,21.6a1.26,1.26,0,1,0,2.52,0,1.26,1.26,0,1,0,-2.52,0zM27.54,21.6a1.26,1.26,0,1,0,2.52,0,1.26,1.26,0,1,0,-2.52,0zM34.74,21.6a1.26,1.26,0,1,0,2.52,0,1.26,1.26,0,1,0,-2.52,0zM41.94,21.6a1.26,1.26,0,1,0,2.52,0,1.26,1.26,0,1,0,-2.52,0zM49.14,21.6a1.26,1.26,0,1,0,2.52,0,1.26,1.26,0,1,0,-2.52,0zM56.34,21.6a1.26,1.26,0,1,0,2.52,0,1.26,1.26,0,1,0,-2.52,0zM63.54,21.6a1.26,1.26,0,1,0,2.52,0,1.26,1.26,0,1,0,-2.52,0zM70.74,21.6a1.26,1.26,0,1,0,2.52,0,1.26,1.26,0,1,0,-2.52,0zM77.94,21.6a1.26,1.26,0,1,0,2.52,0,1.26,1.26,0,1,0,-2.52,0zM85.14,21.6a1.26,1.26,0,1,0,2.52,0,1.26,1.26,0,1,0,-2.52,0zM92.34,21.6a1.26,1.26,0,1,0,2.52,0,1.26,1.26,0,1,0,-2.52,0zM99.54,21.6a1.26,1.26,0,1,0,2.52,0,1.26,1.26,0,1,0,-2.52,0zM106.74,21.6a1.26,1.26,0,1,0,2.52,0,1.26,1.26,0,1,0,-2.52,0zM113.94,21.6a1.26,1.26,0,1,0,2.52,0,1.26,1.26,0,1,0,-2.52,0zM5.94,28.8a1.26,1.26,0,1,0,2.52,0,1.26,1.26,0,1,0,-2.52,0zM13.14,28.8a1.26,1.26,0,1,0,2.52,0,1.26,1.26,0,1,0,-2.52,0zM20.34,28.8a1.26,1.26,0,1,0,2.52,0,1.26,1.26,0,1,0,-2.52,0zM27.54,28.8a1.26,1.26,0,1,0,2.52,0,1.26,1.26,0,1,0,-2.52,0zM34.74,28.8a1.26,1.26,0,1,0,2.52,0,1.26,1.26,0,1,0,-2.52,0zM41.94,28.8a1.26,1.26,0,1,0,2.52,0,1.26,1.26,0,1,0,-2.52,0zM49.14,28.8a1.26,1.26,0,1,0,2.52,0,1.26,1.26,0,1,0,-2.52,0zM56.34,28.8a1.26,1.26,0,1,0,2.52,0,1.26,1.26,0,1,0,-2.52,0zM63.54,28.8a1.26,1.26,0,1,0,2.52,0,1.26,1.26,0,1,0,-2.52,0zM70.74,28.8a1.26,1.26,0,1,0,2.52,0,1.26,1.26,0,1,0,-2.52,0zM77.94,28.8a1.26,1.26,0,1,0,2.52,0,1.26,1.26,0,1,0,-2.52,0zM85.14,28.8a1.26,1.26,0,1,0,2.52,0,1.26,1.26,0,1,0,-2.52,0zM92.34,28.8a1.26,1.26,0,1,0,2.52,0,1.26,1.26,0,1,0,-2.52,0zM99.54,28.8a1.26,1.26,0,1,0,2.52,0,1.26,1.26,0,1,0,-2.52,0zM106.74,28.8a1.26,1.26,0,1,0,2.52,0,1.26,1.26,0,1,0,-2.52,0zM113.94,28.8a1.26,1.26,0,1,0,2.52,0,1.26,1.26,0,1,0,-2.52,0zM5.94,36a1.26,1.26,0,1,0,2.52,0,1.26,1.26,0,1,0,-2.52,0zM13.14,36a1.26,1.26,0,1,0,2.52,0,1.26,1.26,0,1,0,-2.52,0zM20.34,36a1.26,1.26,0,1,0,2.52,0,1.26,1.26,0,1,0,-2.52,0zM27.54,36a1.26,1.26,0,1,0,2.52,0,1.26,1.26,0,1,0,-2.52,0zM34.74,36a1.26,1.26,0,1,0,2.52,0,1.26,1.26,0,1,0,-2.52,0zM41.94,36a1.26,1.26,0,1,0,2.52,0,1.26,1.26,0,1,0,-2.52,0zM49.14,36a1.26,1.26,0,1,0,2.52,0,1.26,1.26,0,1,0,-2.52,0zM56.34,36a1.26,1.26,0,1,0,2.52,0,1.26,1.26,0,1,0,-2.52,0zM63.54,36a1.26,1.26,0,1,0,2.52,0,1.26,1.26,0,1,0,-2.52,0zM70.74,36a1.26,1.26,0,1,0,2.52,0,1.26,1.26,0,1,0,-2.52,0zM77.94,36a1.26,1.26,0,1,0,2.52,0,1.26,1.26,0,1,0,-2.52,0zM85.14,36a1.26,1.26,0,1,0,2.52,0,1.26,1.26,0,1,0,-2.52,0zM92.34,36a1.26,1.26,0,1,0,2.52,0,1.26,1.26,0,1,0,-2.52,0zM99.54,36a1.26,1.26,0,1,0,2.52,0,1.26,1.26,0,1,0,-2.52,0zM106.74,36a1.26,1.26,0,1,0,2.52,0,1.26,1.26,0,1,0,-2.52,0zM113.94,36a1.26,1.26,0,1,0,2.52,0,1.26,1.26,0,1,0,-2.52,0zM5.94,43.2a1.26,1.26,0,1,0,2.52,0,1.26,1.26,0,1,0,-2.52,0zM13.14,43.2a1.26,1.26,0,1,0,2.52,0,1.26,1.26,0,1,0,-2.52,0zM20.34,43.2a1.26,1.26,0,1,0,2.52,0,1.26,1.26,0,1,0,-2.52,0zM27.54,43.2a1.26,1.26,0,1,0,2.52,0,1.26,1.26,0,1,0,-2.52,0zM34.74,43.2a1.26,1.26,0,1,0,2.52,0,1.26,1.26,0,1,0,-2.52,0zM41.94,43.2a1.26,1.26,0,1,0,2.52,0,1.26,1.26,0,1,0,-2.52,0zM49.14,43.2a1.26,1.26,0,1,0,2.52,0,1.26,1.26,0,1,0,-2.52,0zM56.34,43.2a1.26,1.26,0,1,0,2.52,0,1.26,1.26,0,1,0,-2.52,0zM63.54,43.2a1.26,1.26,0,1,0,2.52,0,1.26,1.26,0,1,0,-2.52,0zM70.74,43.2a1.26,1.26,0,1,0,2.52,0,1.26,1.26,0,1,0,-2.52,0zM77.94,43.2a1.26,1.26,0,1,0,2.52,0,1.26,1.26,0,1,0,-2.52,0zM85.14,43.2a1.26,1.26,0,1,0,2.52,0,1.26,1.26,0,1,0,-2.52,0zM92.34,43.2a1.26,1.26,0,1,0,2.52,0,1.26,1.26,0,1,0,-2.52,0zM99.54,43.2a1.26,1.26,0,1,0,2.52,0,1.26,1.26,0,1,0,-2.52,0zM106.74,43.2a1.26,1.26,0,1,0,2.52,0,1.26,1.26,0,1,0,-2.52,0zM113.94,43.2a1.26,1.26,0,1,0,2.52,0,1.26,1.26,0,1,0,-2.52,0zM5.94,50.4a1.26,1.26,0,1,0,2.52,0,1.26,1.26,0,1,0,-2.52,0zM13.14,50.4a1.26,1.26,0,1,0,2.52,0,1.26,1.26,0,1,0,-2.52,0zM20.34,50.4a1.26,1.26,0,1,0,2.52,0,1.26,1.26,0,1,0,-2.52,0zM27.54,50.4a1.26,1.26,0,1,0,2.52,0,1.26,1.26,0,1,0,-2.52,0zM34.74,50.4a1.26,1.26,0,1,0,2.52,0,1.26,1.26,0,1,0,-2.52,0zM41.94,50.4a1.26,1.26,0,1,0,2.52,0,1.26,1.26,0,1,0,-2.52,0zM49.14,50.4a1.26,1.26,0,1,0,2.52,0,1.26,1.26,0,1,0,-2.52,0zM56.34,50.4a1.26,1.26,0,1,0,2.52,0,1.26,1.26,0,1,0,-2.52,0zM63.54,50.4a1.26,1.26,0,1,0,2.52,0,1.26,1.26,0,1,0,-2.52,0zM70.74,50.4a1.26,1.26,0,1,0,2.52,0,1.26,1.26,0,1,0,-2.52,0zM77.94,50.4a1.26,1.26,0,1,0,2.52,0,1.26,1.26,0,1,0,-2.52,0zM85.14,50.4a1.26,1.26,0,1,0,2.52,0,1.26,1.26,0,1,0,-2.52,0zM92.34,50.4a1.26,1.26,0,1,0,2.52,0,1.26,1.26,0,1,0,-2.52,0zM99.54,50.4a1.26,1.26,0,1,0,2.52,0,1.26,1.26,0,1,0,-2.52,0zM106.74,50.4a1.26,1.26,0,1,0,2.52,0,1.26,1.26,0,1,0,-2.52,0zM113.94,50.4a1.26,1.26,0,1,0,2.52,0,1.26,1.26,0,1,0,-2.52,0z"/>
    <path stroke-opacity="1" fill="none"  stroke="#deb675" stroke-width="0.576" d="M0.288,0.288L121.824,0.288,121.824,57.024,0.288,57.024z"/>
    <circle fill="none" cx="7.2"  cy="7.2" connectorname="0.0" stroke="#c49c59" r="1.98" id="connector0pin" stroke-width="1.44"/>
    <circle fill="none" cx="14.4"  cy="7.2" connectorname="1.0" stroke="#c49c59" r="1.98" id="connector1pin" stroke-width="1.44"/>
    <circle fill="none" cx="21.6"  cy="7.2" connectorname="2.0" stroke="#c49c59" r="1.98" id="connector2pin" stroke-width="1.44"/>
    <circle fill="none" cx="28.8"  cy="7.2" connectorname="3.0" stroke="#c49c59" r="1.98" id="connector3pin" stroke-width="1.44"/>
    <circle fill="none" cx="36"  cy="7.2" connectorname="4.0" stroke="#c49c59" r="1.98" id="connector4pin" stroke-width="1.44"/>
    <circle fill="none" cx="43.2"  cy="7.2" connectorname="5.0" stroke="#c49c59" r="1.98" id="connector5pin" stroke-width="1.44"/>
    <circle fill="none" cx="50.4"  cy="7.2" connectorname="6.0" stroke="#c49c59" r="1.98" id="connector6pin" stroke-width="1.44"/>
    <circle fill="none" cx="57.6"  cy="7.2" connectorname="7.0" stroke="#c49c59" r="1.98" id="connector7pin" stroke-width="1.44"/>
    <circle fill="none" cx="64.8"  cy="7.2" connectorname="8.0" stroke="#c49c59" r="1.98" id="connector8pin" stroke-width="1.44"/>
    <circle fill="none" cx="72"  cy="7.2" connectorname="9.0" stroke="#c49c59" r="1.98" id="connector9pin" stroke-width="1.44"/>
    <circle fill="none" cx="79.2"  cy="7.2" connectorname="10.0" stroke="#c49c59" r="1.98" id="connector10pin" stroke-width="1.44"/>
    <circle fill="none" cx="86.4"  cy="7.2" connectorname="11.0" stroke="#c49c59" r="1.98" id="connector11pin" stroke-width="1.44"/>
    <circle fill="none" cx="93.6"  cy="7.2" connectorname="12.0" stroke="#c49c59" r="1.98" id="connector12pin" stroke-width="1.44"/>
    <circle fill="none" cx="100.8"  cy="7.2" connectorname="13.0" stroke="#c49c59" r="1.98" id="connector13pin" stroke-width="1.44"/>
    <circle fill="none" cx="108"  cy="7.2" connectorname="14.0" stroke="#c49c59" r="1.98" id="connector14pin" stroke-width="1.44"/>
    <circle fill="none" cx="115.2"  cy="7.2" connectorname="15.0" stroke="#c49c59" r="1.98" id="connector15pin" stroke-width="1.44"/>
    <circle fill="none" cx="7.2"  cy="14.4" connectorname="0.1" stroke="#c49c59" r="1.98" id="connector1000pin" stroke-width="1.44"/>
    <circle fill="none" cx="14.4"  cy="14.4" connectorname="1.1" stroke="#c49c59" r="1.98" id="connector1001pin" stroke-width="1.44"/>
    <circle fill="none" cx="21.6"  cy="14.4" connectorname="2.1" stroke="#c49c59" r="1.98" id="connector1002pin" stroke-width="1.44"/>
    <circle fill="none" cx="28.8"  cy="14.4" connectorname="3.1" stroke="#c49c59" r="1.98" id="connector1003pin" stroke-width="1.44"/>
    <circle fill="none" cx="36"  cy="14.4" connectorname="4.1" stroke="#c49c59" r="1.98" id="connector1004pin" stroke-width="1.44"/>
    <circle fill="none" cx="43.2"  cy="14.4" connectorname="5.1" stroke="#c49c59" r="1.98" id="connector1005pin" stroke-width="1.44"/>
    <circle fill="none" cx="50.4"  cy="14.4" connectorname="6.1" stroke="#c49c59" r="1.98" id="connector1006pin" stroke-width="1.44"/>
    <circle fill="none" cx="57.6"  cy="14.4" connectorname="7.1" stroke="#c49c59" r="1.98" id="connector1007pin" stroke-width="1.44"/>
    <circle fill="none" cx="64.8"  cy="14.4" connectorname="8.1" stroke="#c49c59" r="1.98" id="connector1008pin" stroke-width="1.44"/>
    <circle fill="none" cx="72"  cy="14.4" connectorname="9.1" stroke="#c49c59" r="1.98" id="connector1009pin" stroke-width="1.44"/>
    <circle fill="none" cx="79.2"  cy="14.4" connectorname="10.1" stroke="#c49c59" r="1.98" id="connector1010pin" stroke-width="1.44"/>
    <circle fill="none" cx="86.4"  cy="14.4" connectorname="11.1" stroke="#c49c59" r="1.98" id="connector1011pin" stroke-width="1.44"/>
    <circle fill="none" cx="93.6"  cy="14.4" connectorname="12.1" stroke="#c49c59" r="1.98" id="connector1012pin" stroke-width="1.44"/>
    <circle fill="none" cx="100.8"  cy="14.4" connectorname="13.1" stroke="#c49c59" r="1.98" id="connector1013pin" stroke-width="1.44"/>
    <circle fill="none" cx="108"  cy="14.4" connectorname="14.1" stroke="#c49c59" r="1.98" id="connector1014pin" stroke-width="1.44"/>
    <circle fill="none" cx="115.2"  cy="14.4" connectorname="15.1" stroke="#c49c59" r="1.98" id="connector1015pin" stroke-width="1.44"/>
    <circle fill="none" cx="7.2"  cy="21.6" connectorname="0.2" stroke="#c49c59" r="1.98" id="connector2000pin" stroke-width="1.44"/>
    <circle fill="none" cx="14.4"  cy="21.6" connectorname="1.2" stroke="#c49c59" r="1.98" id="connector2001pin" stroke-width="1.44"/>
    <circle fill="none" cx="21.6"  cy="21.6" connectorname="2.2" stroke="#c49c59" r="1.98" id="connector2002pin" stroke-width="1.44"/>
    <circle fill="none" cx="28.8"  cy="21.6" connectorname="3.2" stroke="#c49c59" r="1.98" id="connector2003pin" stroke-width="1.44"/>
    <circle fill="none" cx="36"  cy="21.6" connectorname="4.2" stroke="#c49c59" r="1.98" id="connector2004pin" stroke-width="1.44"/>
    <circle fill="none" cx="43.2"  cy="21.6" connectorname="5.2" stroke="#c49c59" r="1.98" id="connector2005pin" stroke-width="1.44"/>
    <circle fill="none" cx="50.4"  cy="21.6" connectorname="6.2" stroke="#c49c59" r="1.98" id="connector2006pin" stroke-width="1.44"/>
    <circle fill="none" cx="57.6"  cy="21.6" connectorname="7.2" stroke="#c49c59" r="1.98" id="connector2007pin" stroke-width="1.44"/>
    <circle fill="none" cx="64.8"  cy="21.6" connectorname="8.2" stroke="#c49c59" r="1.98" id="connector2008pin" stroke-width="1.44"/>
    <circle fill="none" cx="72"  cy="21.6" connectorname="9.2" stroke="#c49c59" r="1.98" id="connector2009pin" stroke-width="1.44"/>
    <circle fill="none" cx="79.2"  cy="21.6" connectorname="10.2" stroke="#c49c59" r="1.98" id="connector2010pin" stroke-width="1.44"/>
    <circle fill="none" cx="86.4"  cy="21.6" connectorname="11.2" stroke="#c49c59" r="1.98" id="connector2011pin" stroke-width="1.44"/>
    <circle fill="none" cx="93.6"  cy="21.6" connectorname="12.2" stroke="#c49c59" r="1.98" id="connector2012pin" stroke-width="1.44"/>
    <circle fill="none" cx="100.8"  cy="21.6" connectorname="13.2" stroke="#c49c59" r="1.98" id="connector2013pin" stroke-width="1.44"/>
    <circle fill="none" cx="108"  cy="21.6" connectorname="14.2" stroke="#c49c59" r="1.98" id="connector2014pin" stroke-width="1.44"/>
    <circle fill="none" cx="115.2"  cy="21.6" connectorname="15.2" stroke="#c49c59" r="1.98" id="connector2015pin" stroke-width="1.44"/>
    <circle fill="none" cx="7.2"  cy="28.8" connectorname="0.3" stroke="#c49c59" r="1.98" id="connector3000pin" stroke-width="1.44"/>
    <circle fill="none" cx="14.4"  cy="28.8" connectorname="1.3" stroke="#c49c59" r="1.98" id="connector3001pin" stroke-width="1.44"/>
    <circle fill="none" cx="21.6"  cy="28.8" connectorname="2.3" stroke="#c49c59" r="1.98" id="connector3002pin" stroke-width="1.44"/>
    <circle fill="none" cx="28.8"  cy="28.8" connectorname="3.3" stroke="#c49c59" r="1.98" id="connector3003pin" stroke-width="1.44"/>
    <circle fill="none" cx="36"  cy="28.8" connectorname="4.3" stroke="#c49c59" r="1.98" id="connector3004pin" stroke-width="1.44"/>
    <circle fill="none" cx="43.2"  cy="28.8" connectorname="5.3" stroke="#c49c59" r="1.98" id="connector3005pin" stroke-width="1.44"/>
    <circle fill="none" cx="50.4"  cy="28.8" connectorname="6.3" stroke="#c49c59" r="1.98" id="connector3006pin" stroke-width="1.44"/>
    <circle fill="none" cx="57.6"  cy="28.8" connectorname="7.3" stroke="#c49c59" r="1.98" id="connector3007pin" stroke-width="1.44"/>
    <circle fill="none" cx="64.8"  cy="28.8" connectorname="8.3" stroke="#c49c59" r="1.98" id="connector3008pin" stroke-width="1.44"/>
    <circle fill="none" cx="72"  cy="28.8" connectorname="9.3" stroke="#c49c59" r="1.98" id="connector3009pin" stroke-width="1.44"/>
    <circle fill="none" cx="79.2"  cy="28.8" connectorname="10.3" stroke="#c49c59" r="1.98" id="connector3010pin" stroke-width="1.44"/>
    <circle fill="none" cx="86.4"  cy="28.8" connectorname="11.3" stroke="#c49c59" r="1.98" id="connector3011pin" stroke-width="1.44"/>
    <circle fill="none" cx="93.6"  cy="28.8" connectorname="12.3" stroke="#c49c59" r="1.98" id="connector3012pin" stroke-width="1.44"/>
    <circle fill="none" cx="100.8"  cy="28.8" connectorname="13.3" stroke="#c49c59" r="1.98" id="connector3013pin" stroke-width="1.44"/>
    <circle fill="none" cx="108"  cy="28.8" connectorname="14.3" stroke="#c49c59" r="1.98" id="connector3014pin" stroke-width="1.44"/>
    <circle fill="none" cx="115.2"  cy="28.8" connectorname="15.3" stroke="#c49c59" r="1.98" id="connector3015pin" stroke-width="1.44"/>
    <circle fill="none" cx="7.2"  cy="36" connectorname="0.4" stroke="#c49c59" r="1.98" id="connector4000pin" stroke-width="1.44"/>
    <circle fill="none" cx="14.4"  cy="36" connectorname="1.4" stroke="#c49c59" r="1.98" id="connector4001pin" stroke-width="1.44"/>
    <circle fill="none" cx="21.6"  cy="36" connectorname="2.4" stroke="#c49c59" r="1.98" id="connector4002pin" stroke-width="1.44"/>
    <circle fill="none" cx="28.8"  cy="36" connectorname="3.4" stroke="#c49c59" r="1.98" id="connector4003pin" stroke-width="1.44"/>
    <circle fill="none" cx="36"  cy="36" connectorname="4.4" stroke="#c49c59" r="1.98" id="connector4004pin" stroke-width="1.44"/>
    <circle fill="none" cx="43.2"  cy="36" connectorname="5.4" stroke="#c49c59" r="1.98" id="connector4005pin" stroke-width="1.44"/>
    <circle fill="none" cx="50.4"  cy="36" connectorname="6.4" stroke="#c49c59" r="1.98" id="connector4006pin" stroke-width="1.44"/>
    <circle fill="none" cx="57.6"  cy="36" connectorname="7.4" stroke="#c49c59" r="1.98" id="connector4007pin" stroke-width="1.44"/>
    <circle fill="none" cx="64.8"  cy="36" connectorname="8.4" stroke="#c49c59" r="1.98" id="connector4008pin" stroke-width="1.44"/>
    <circle fill="none" cx="72"  cy="36" connectorname="9.4" stroke="#c49c59" r="1.98" id="connector4009pin" stroke-width="1.44"/>
    <circle fill="none" cx="79.2"  cy="36" connectorname="10.4" stroke="#c49c59" r="1.98" id="connector4010pin" stroke-width="1.44"/>
    <circle fill="none" cx="86.4"  cy="36" connectorname="11.4" stroke="#c49c59" r="1.98" id="connector4011pin" stroke-width="1.44"/>
    <circle fill="none" cx="93.6"  cy="36" connectorname="12.4" stroke="#c49c59" r="1.98" id="connector4012pin" stroke-width="1.44"/>
    <circle fill="none" cx="100.8"  cy="36" connectorname="13.4" stroke="#c49c59" r="1.98" id="connector4013pin" stroke-width="1.44"/>
    <circle fill="none" cx="108"  cy="36" connectorname="14.4" stroke="#c49c59" r="1.98" id="connector4014pin" stroke-width="1.44"/>
    <circle fill="none" cx="115.2"  cy="36" connectorname="15.4" stroke="#c49c59" r="1.98" id="connector4015pin" stroke-width="1.44"/>
    <circle fill="none" cx="7.2"  cy="43.2" connectorname="0.5" stroke="#c49c59" r="1.98" id="connector5000pin" stroke-width="1.44"/>
    <circle fill="none" cx="14.4"  cy="43.2" connectorname="1.5" stroke="#c49c59" r="1.98" id="connector5001pin" stroke-width="1.44"/>
    <circle fill="none" cx="21.6"  cy="43.2" connectorname="2.5" stroke="#c49c59" r="1.98" id="connector5002pin" stroke-width="1.44"/>
    <circle fill="none" cx="28.8"  cy="43.2" connectorname="3.5" stroke="#c49c59" r="1.98" id="connector5003pin" stroke-width="1.44"/>
    <circle fill="none" cx="36"  cy="43.2" connectorname="4.5" stroke="#c49c59" r="1.98" id="connector5004pin" stroke-width="1.44"/>
    <circle fill="none" cx="43.2"  cy="43.2" connectorname="5.5" stroke="#c49c59" r="1.98" id="connector5005pin" stroke-width="1.44"/>
    <circle fill="none" cx="50.4"  cy="43.2" connectorname="6.5" stroke="#c49c59" r="1.98" id="connector5006pin" stroke-width="1.44"/>
    <circle fill="none" cx="57.6"  cy="43.2" connectorname="7.5" stroke="#c49c59" r="1.98" id="connector5007pin" stroke-width="1.44"/>
    <circle fill="none" cx="64.8"  cy="43.2" connectorname="8.5" stroke="#c49c59" r="1.98" id="connector5008pin" stroke-width="1.44"/>
    <circle fill="none" cx="72"  cy="43.2" connectorname="9.5" stroke="#c49c59" r="1.98" id="connector5009pin" stroke-width="1.44"/>
    <circle fill="none" cx="79.2"  cy="43.2" connectorname="10.5" stroke="#c49c59" r="1.98" id="connector5010pin" stroke-width="1.44"/>
    <circle fill="none" cx="86.4"  cy="43.2" connectorname="11.5" stroke="#c49c59" r="1.98" id="connector5011pin" stroke-width="1.44"/>
    <circle fill="none" cx="93.6"  cy="43.2" connectorname="12.5" stroke="#c49c59" r="1.98" id="connector5012pin" stroke-width="1.44"/>
    <circle fill="none" cx="100.8"  cy="43.2" connectorname="13.5" stroke="#c49c59" r="1.98" id="connector5013pin" stroke-width="1.44"/>
    <circle fill="none" cx="108"  cy="43.2" connectorname="14.5" stroke="#c49c59" r="1.98" id="connector5014pin" stroke-width="1.44"/>
    <circle fill="none" cx="115.2"  cy="43.2" connectorname="15.5" stroke="#c49c59" r="1.98" id="connector5015pin" stroke-width="1.44"/>
    <circle fill="none" cx="7.2"  cy="50.4" connectorname="0.6" stroke="#c49c59" r="1.98" id="connector6000pin" stroke-width="1.44"/>
    <circle fill="none" cx="14.4"  cy="50.4" connectorname="1.6" stroke="#c49c59" r="1.98" id="connector6001pin" stroke-width="1.44"/>
    <circle fill="none" cx="21.6"  cy="50.4" connectorname="2.6" stroke="#c49c59" r="1.98" id="connector6002pin" stroke-width="1.44"/>
    <circle fill="none" cx="28.8"  cy="50.4" connectorname="3.6" stroke="#c49c59" r="1.98" id="connector6003pin" stroke-width="1.44"/>
    <circle fill="none" cx="36"  cy="50.4" connectorname="4.6" stroke="#c49c59" r="1.98" id="connector6004pin" stroke-width="1.44"/>
    <circle fill="none" cx="43.2"  cy="50.4" connectorname="5.6" stroke="#c49c59" r="1.98" id="connector6005pin" stroke-width="1.44"/>
    <circle fill="none" cx="50.4"  cy="50.4" connectorname="6.6" stroke="#c49c59" r="1.98" id="connector6006pin" stroke-width="1.44"/>
    <circle fill="none" cx="57.6"  cy="50.4" connectorname="7.6" stroke="#c49c59" r="1.98" id="connector6007pin" stroke-width="1.44"/>
    <circle fill="none" cx="64.8"  cy="50.4" connectorname="8.6" stroke="#c49c59" r="1.98" id="connector6008pin" stroke-width="1.44"/>
    <circle fill="none" cx="72"  cy="50.4" connectorname="9.6" stroke="#c49c59" r="1.98" id="connector6009pin" stroke-width="1.44"/>
    <circle fill="none" cx="79.2"  cy="50.4" connectorname="10.6" stroke="#c49c59" r="1.98" id="connector6010pin" stroke-width="1.44"/>
    <circle fill="none" cx="86.4"  cy="50.4" connectorname="11.6" stroke="#c49c59" r="1.98" id="connector6011pin" stroke-width="1.44"/>
    <circle fill="none" cx="93.6"  cy="50.4" connectorname="12.6" stroke="#c49c59" r="1.98" id="connector6012pin" stroke-width="1.44"/>
    <circle fill="none" cx="100.8"  cy="50.4" connectorname="13.6" stroke="#c49c59" r="1.98" id="connector6013pin" stroke-width="1.44"/>
    <circle fill="none" cx="108"  cy="50.4" connectorname="14.6" stroke="#c49c59" r="1.98" id="connector6014pin" stroke-width="1.44"/>
    <circle fill="none" cx="115.2"  cy="50.4" connectorname="15.6" stroke="#c49c59" r="1.98" id="connector6015pin" stroke-width="1.44"/>
    <path fill="#c49c59" stroke="none" stroke-width="0" d="m21.6,40.5 7.2,0 0,5.4 -7.2,0z m0,5.4a2.7,2.7  0,1,0 0,-5.4z  m7.2,-5.4a2.7,2.7 0,1,0 0,5.4z"/>
    <path fill="#c49c59" stroke="none" stroke-width="0" d="m28.8,40.5 7.2,0 0,5.4 -7.2,0z m0,5.4a2.7,2.7  0,1,0 0,-5.4z  m7.2,-5.4a2.7,2.7 0,1,0 0,5.4z"/>
    <path fill="#c49c59" stroke="none" stroke-width="0" d="m36,40.5 7.2,0 0,5.4 -7.2,0z m0,5.4a2.7,2.7  0,1,0 0,-5.4z  m7.2,-5.4a2.7,2.7 0,1,0 0,5.4z"/>
    <path fill="#c49c59" stroke="none" stroke-width="0" d="m43.2,40.5 7.2,0 0,5.4 -7.2,0z m0,5.4a2.7,2.7  0,1,0 0,-5.4z  m7.2,-5.4a2.7,2.7 0,1,0 0,5.4z"/>
    <path fill="#c49c59" stroke="none" stroke-width="0" d="m50.4,40.5 7.2,0 0,5.4 -7.2,0z m0,5.4a2.7,2.7  0,1,0 0,-5.4z  m7.2,-5.4a2.7,2.7 0,1,0 0,5.4z"/>
    <path fill="#c49c59" stroke="none" stroke-width="0" d="m57.6,40.5 7.2,0 0,5.4 -7.2,0z m0,5.4a2.7,2.7  0,1,0 0,-5.4z  m7.2,-5.4a2.7,2.7 0,1,0 0,5.4z"/>
    <path fill="#c49c59" stroke="none" stroke-width="0" d="m64.8,40.5 7.2,0 0,5.4 -7.2,0z m0,5.4a2.7,2.7  0,1,0 0,-5.4z  m7.2,-5.4a2.7,2.7 0,1,0 0,5.4z"/>
    <path fill="#c49c59" stroke="none" stroke-width="0" d="m72,40.5 7.2,0 0,5.4 -7.2,0z m0,5.4a2.7,2.7  0,1,0 0,-5.4z  m7.2,-5.4a2.7,2.7 0,1,0 0,5.4z"/>
    <path fill="#c49c59" stroke="none" stroke-width="0" d="m7.2,4.5 7.2,0 0,5.4 -7.2,0z m0,5.4a2.7,2.7  0,1,0 0,-5.4z  m7.2,-5.4a2.7,2.7 0,1,0 0,5.4z"/>
    <path fill="#c49c59" stroke="none" stroke-width="0" d="m14.4,4.5 7.2,0 0,5.4 -7.2,0z m0,5.4a2.7,2.7  0,1,0 0,-5.4z  m7.2,-5.4a2.7,2.7 0,1,0 0,5.4z"/>
    <path fill="#c49c59" stroke="none" stroke-width="0" d="m79.2,33.3 7.2,0 0,5.4 -7.2,0z m0,5.4a2.7,2.7  0,1,0 0,-5.4z  m7.2,-5.4a2.7,2.7 0,1,0 0,5.4z"/>
    <path fill="#c49c59" stroke="none" stroke-width="0" d="m21.6,4.5 7.2,0 0,5.4 -7.2,0z m0,5.4a2.7,2.7  0,1,0 0,-5.4z  m7.2,-5.4a2.7,2.7 0,1,0 0,5.4z"/>
    <path fill="#c49c59" stroke="none" stroke-width="0" d="m28.8,4.5 7.2,0 0,5.4 -7.2,0z m0,5.4a2.7,2.7  0,1,0 0,-5.4z  m7.2,-5.4a2.7,2.7 0,1,0 0,5.4z"/>
    <path fill="#c49c59" stroke="none" stroke-width="0" d="m86.4,33.3 7.2,0 0,5.4 -7.2,0z m0,5.4a2.7,2.7  0,1,0 0,-5.4z  m7.2,-5.4a2.7,2.7 0,1,0 0,5.4z"/>
    <path fill="#c49c59" stroke="none" stroke-width="0" d="m36,4.5 7.2,0 0,5.4 -7.2,0z m0,5.4a2.7,2.7  0,1,0 0,-5.4z  m7.2,-5.4a2.7,2.7 0,1,0 0,5.4z"/>
    <path fill="#c49c59" stroke="none" stroke-width="0" d="m93.6,33.3 7.2,0 0,5.4 -7.2,0z m0,5.4a2.7,2.7  0,1,0 0,-5.4z  m7.2,-5.4a2.7,2.7 0,1,0 0,5.4z"/>
    <path fill="#c49c59" stroke="none" stroke-width="0" d="m43.2,4.5 7.2,0 0,5.4 -7.2,0z m0,5.4a2.7,2.7  0,1,0 0,-5.4z  m7.2,-5.4a2.7,2.7 0,1,0 0,5.4z"/>
    <path fill="#c49c59" stroke="none" stroke-width="0" d="m100.8,33.3 7.2,0 0,5.4 -7.2,0z m0,5.4a2.7,2.7  0,1,0 0,-5.4z  m7.2,-5.4a2.7,2.7 0,1,0 0,5.4z"/>
    <path fill="#c49c59" stroke="none" stroke-width="0" d="m50.4,4.5 7.2,0 0,5.4 -7.2,0z m0,5.4a2.7,2.7  0,1,0 0,-5.4z  m7.2,-5.4a2.7,2.7 0,1,0 0,5.4z"/>
    <path fill="#c49c59" stroke="none" stroke-width="0" d="m108,33.3 7.2,0 0,5.4 -7.2,0z m0,5.4a2.7,2.7  0,1,0 0,-5.4z  m7.2,-5.4a2.7,2.7 0,1,0 0,5.4z"/>
    <path fill="#c49c59" stroke="none" stroke-width="0" d="m57.6,4.5 7.2,0 0,5.4 -7.2,0z m0,5.4a2.7,2.7  0,1,0 0,-5.4z  m7.2,-5.4a2.7,2.7 0,1,0 0,5.4z"/>
    <path fill="#c49c59" stroke="none" stroke-width="0" d="m64.8,4.5 7.2,0 0,5.4 -7.2,0z m0,5.4a2.7,2.7  0,1,0 0,-5.4z  m7.2,-5.4a2.7,2.7 0,1,0 0,5.4z"/>
    <path fill="#c49c59" stroke="none" stroke-width="0" d="m72,4.5 7.2,0 0,5.4 -7.2,0z m0,5.4a2.7,2.7  0,1,0 0,-5.4z  m7.2,-5.4a2.7,2.7 0,1,0 0,5.4z"/>
    <path fill="#c49c59" stroke="none" stroke-width="0" d="m7.2,11.7 7.2,0 0,5.4 -7.2,0z m0,5.4a2.7,2.7  0,1,0 0,-5.4z  m7.2,-5.4a2.7,2.7 0,1,0 0,5.4z"/>
    <path fill="#c49c59" stroke="none" stroke-width="0" d="m14.4,11.7 7.2,0 0,5.4 -7.2,0z m0,5.4a2.7,2.7  0,1,0 0,-5.4z  m7.2,-5.4a2.7,2.7 0,1,0 0,5.4z"/>
    <path fill="#c49c59" stroke="none" stroke-width="0" d="m21.6,11.7 7.2,0 0,5.4 -7.2,0z m0,5.4a2.7,2.7  0,1,0 0,-5.4z  m7.2,-5.4a2.7,2.7 0,1,0 0,5.4z"/>
    <path fill="#c49c59" stroke="none" stroke-width="0" d="m28.8,11.7 7.2,0 0,5.4 -7.2,0z m0,5.4a2.7,2.7  0,1,0 0,-5.4z  m7.2,-5.4a2.7,2.7 0,1,0 0,5.4z"/>
    <path fill="#c49c59" stroke="none" stroke-width="0" d="m79.2,4.5 7.2,0 0,5.4 -7.2,0z m0,5.4a2.7,2.7  0,1,0 0,-5.4z  m7.2,-5.4a2.7,2.7 0,1,0 0,5.4z"/>
    <path fill="#c49c59" stroke="none" stroke-width="0" d="m36,11.7 7.2,0 0,5.4 -7.2,0z m0,5.4a2.7,2.7  0,1,0 0,-5.4z  m7.2,-5.4a2.7,2.7 0,1,0 0,5.4z"/>
    <path fill="#c49c59" stroke="none" stroke-width="0" d="m86.4,4.5 7.2,0 0,5.4 -7.2,0z m0,5.4a2.7,2.7  0,1,0 0,-5.4z  m7.2,-5.4a2.7,2.7 0,1,0 0,5.4z"/>
    <path fill="#c49c59" stroke="none" stroke-width="0" d="m43.2,11.7 7.2,0 0,5.4 -7.2,0z m0,5.4a2.7,2.7  0,1,0 0,-5.4z  m7.2,-5.4a2.7,2.7 0,1,0 0,5.4z"/>
    <path fill="#c49c59" stroke="none" stroke-width="0" d="m93.6,4.5 7.2,0 0,5.4 -7.2,0z m0,5.4a2.7,2.7  0,1,0 0,-5.4z  m7.2,-5.4a2.7,2.7 0,1,0 0,5.4z"/>
    <path fill="#c49c59" stroke="none" stroke-width="0" d="m50.4,11.7 7.2,0 0,5.4 -7.2,0z m0,5.4a2.7,2.7  0,1,0 0,-5.4z  m7.2,-5.4a2.7,2.7 0,1,0 0,5.4z"/>
    <path fill="#c49c59" stroke="none" stroke-width="0" d="m100.8,4.5 7.2,0 0,5.4 -7.2,0z m0,5.4a2.7,2.7  0,1,0 0,-5.4z  m7.2,-5.4a2.7,2.7 0,1,0 0,5.4z"/>
    <path fill="#c49c59" stroke="none" stroke-width="0" d="m57.6,11.7 7.2,0 0,5.4 -7.2,0z m0,5.4a2.7,2.7  0,1,0 0,-5.4z  m7.2,-5.4a2.7,2.7 0,1,0 0,5.4z"/>
    <path fill="#c49c59" stroke="none" stroke-width="0" d="m108,4.5 7.2,0 0,5.4 -7.2,0z m0,5.4a2.7,2.7  0,1,0 0,-5.4z  m7.2,-5.4a2.7,2.7 0,1,0 0,5.4z"/>
    <path fill="#c49c59" stroke="none" stroke-width="0" d="m64.8,11.7 7.2,0 0,5.4 -7.2,0z m0,5.4a2.7,2.7  0,1,0 0,-5.4z  m7.2,-5.4a2.7,2.7 0,1,0 0,5.4z"/>
    <path fill="#c49c59" stroke="none" stroke-width="0" d="m72,11.7 7.2,0 0,5.4 -7.2,0z m0,5.4a2.7,2.7  0,1,0 0,-5.4z  m7.2,-5.4a2.7,2.7 0,1,0 0,5.4z"/>
    <path fill="#c49c59" stroke="none" stroke-width="0" d="m79.2,47.7 7.2,0 0,5.4 -7.2,0z m0,5.4a2.7,2.7  0,1,0 0,-5.4z  m7.2,-5.4a2.7,2.7 0,1,0 0,5.4z"/>
    <path fill="#c49c59" stroke="none" stroke-width="0" d="m86.4,47.7 7.2,0 0,5.4 -7.2,0z m0,5.4a2.7,2.7  0,1,0 0,-5.4z  m7.2,-5.4a2.7,2.7 0,1,0 0,5.4z"/>
    <path fill="#c49c59" stroke="none" stroke-width="0" d="m86.4,26.1 7.2,0 0,5.4 -7.2,0z m0,5.4a2.7,2.7  0,1,0 0,-5.4z  m7.2,-5.4a2.7,2.7 0,1,0 0,5.4z"/>
    <path fill="#c49c59" stroke="none" stroke-width="0" d="m93.6,47.7 7.2,0 0,5.4 -7.2,0z m0,5.4a2.7,2.7  0,1,0 0,-5.4z  m7.2,-5.4a2.7,2.7 0,1,0 0,5.4z"/>
    <path fill="#c49c59" stroke="none" stroke-width="0" d="m93.6,26.1 7.2,0 0,5.4 -7.2,0z m0,5.4a2.7,2.7  0,1,0 0,-5.4z  m7.2,-5.4a2.7,2.7 0,1,0 0,5.4z"/>
    <path fill="#c49c59" stroke="none" stroke-width="0" d="m100.8,47.7 7.2,0 0,5.4 -7.2,0z m0,5.4a2.7,2.7  0,1,0 0,-5.4z  m7.2,-5.4a2.7,2.7 0,1,0 0,5.4z"/>
    <path fill="#c49c59" stroke="none" stroke-width="0" d="m100.8,26.1 7.2,0 0,5.4 -7.2,0z m0,5.4a2.7,2.7  0,1,0 0,-5.4z  m7.2,-5.4a2.7,2.7 0,1,0 0,5.4z"/>
    <path fill="#c49c59" stroke="none" stroke-width="0" d="m108,47.7 7.2,0 0,5.4 -7.2,0z m0,5.4a2.7,2.7  0,1,0 0,-5.4z  m7.2,-5.4a2.7,2.7 0,1,0 0,5.4z"/>
    <path fill="#c49c59" stroke="none" stroke-width="0" d="m108,26.1 7.2,0 0,5.4 -7.2,0z m0,5.4a2.7,2.7  0,1,0 0,-5.4z  m7.2,-5.4a2.7,2.7 0,1,0 0,5.4z"/>
    <path fill="#c49c59" stroke="none" stroke-width="0" d="m7.2,33.3 7.2,0 0,5.4 -7.2,0z m0,5.4a2.7,2.7  0,1,0 0,-5.4z  m7.2,-5.4a2.7,2.7 0,1,0 0,5.4z"/>
    <path fill="#c49c59" stroke="none" stroke-width="0" d="m14.4,33.3 7.2,0 0,5.4 -7.2,0z m0,5.4a2.7,2.7  0,1,0 0,-5.4z  m7.2,-5.4a2.7,2.7 0,1,0 0,5.4z"/>
    <path fill="#c49c59" stroke="none" stroke-width="0" d="m21.6,33.3 7.2,0 0,5.4 -7.2,0z m0,5.4a2.7,2.7  0,1,0 0,-5.4z  m7.2,-5.4a2.7,2.7 0,1,0 0,5.4z"/>
    <path fill="#c49c59" stroke="none" stroke-width="0" d="m28.8,33.3 7.2,0 0,5.4 -7.2,0z m0,5.4a2.7,2.7  0,1,0 0,-5.4z  m7.2,-5.4a2.7,2.7 0,1,0 0,5.4z"/>
    <path fill="#c49c59" stroke="none" stroke-width="0" d="m36,33.3 7.2,0 0,5.4 -7.2,0z m0,5.4a2.7,2.7  0,1,0 0,-5.4z  m7.2,-5.4a2.7,2.7 0,1,0 0,5.4z"/>
    <path fill="#c49c59" stroke="none" stroke-width="0" d="m43.2,33.3 7.2,0 0,5.4 -7.2,0z m0,5.4a2.7,2.7  0,1,0 0,-5.4z  m7.2,-5.4a2.7,2.7 0,1,0 0,5.4z"/>
    <path fill="#c49c59" stroke="none" stroke-width="0" d="m50.4,33.3 7.2,0 0,5.4 -7.2,0z m0,5.4a2.7,2.7  0,1,0 0,-5.4z  m7.2,-5.4a2.7,2.7 0,1,0 0,5.4z"/>
    <path fill="#c49c59" stroke="none" stroke-width="0" d="m57.6,33.3 7.2,0 0,5.4 -7.2,0z m0,5.4a2.7,2.7  0,1,0 0,-5.4z  m7.2,-5.4a2.7,2.7 0,1,0 0,5.4z"/>
    <path fill="#c49c59" stroke="none" stroke-width="0" d="m64.8,33.3 7.2,0 0,5.4 -7.2,0z m0,5.4a2.7,2.7  0,1,0 0,-5.4z  m7.2,-5.4a2.7,2.7 0,1,0 0,5.4z"/>
    <path fill="#c49c59" stroke="none" stroke-width="0" d="m72,33.3 7.2,0 0,5.4 -7.2,0z m0,5.4a2.7,2.7  0,1,0 0,-5.4z  m7.2,-5.4a2.7,2.7 0,1,0 0,5.4z"/>
    <path fill="#c49c59" stroke="none" stroke-width="0" d="m86.4,18.9 7.2,0 0,5.4 -7.2,0z m0,5.4a2.7,2.7  0,1,0 0,-5.4z  m7.2,-5.4a2.7,2.7 0,1,0 0,5.4z"/>
    <path fill="#c49c59" stroke="none" stroke-width="0" d="m93.6,18.9 7.2,0 0,5.4 -7.2,0z m0,5.4a2.7,2.7  0,1,0 0,-5.4z  m7.2,-5.4a2.7,2.7 0,1,0 0,5.4z"/>
    <path fill="#c49c59" stroke="none" stroke-width="0" d="m100.8,18.9 7.2,0 0,5.4 -7.2,0z m0,5.4a2.7,2.7  0,1,0 0,-5.4z  m7.2,-5.4a2.7,2.7 0,1,0 0,5.4z"/>
    <path fill="#c49c59" stroke="none" stroke-width="0" d="m108,18.9 7.2,0 0,5.4 -7.2,0z m0,5.4a2.7,2.7  0,1,0 0,-5.4z  m7.2,-5.4a2.7,2.7 0,1,0 0,5.4z"/>
    <path fill="#c49c59" stroke="none" stroke-width="0" d="m79.2,40.5 7.2,0 0,5.4 -7.2,0z m0,5.4a2.7,2.7  0,1,0 0,-5.4z  m7.2,-5.4a2.7,2.7 0,1,0 0,5.4z"/>
    <path fill="#c49c59" stroke="none" stroke-width="0" d="m86.4,40.5 7.2,0 0,5.4 -7.2,0z m0,5.4a2.7,2.7  0,1,0 0,-5.4z  m7.2,-5.4a2.7,2.7 0,1,0 0,5.4z"/>
    <path fill="#c49c59" stroke="none" stroke-width="0" d="m93.6,40.5 7.2,0 0,5.4 -7.2,0z m0,5.4a2.7,2.7  0,1,0 0,-5.4z  m7.2,-5.4a2.7,2.7 0,1,0 0,5.4z"/>
    <path fill="#c49c59" stroke="none" stroke-width="0" d="m100.8,40.5 7.2,0 0,5.4 -7.2,0z m0,5.4a2.7,2.7  0,1,0 0,-5.4z  m7.2,-5.4a2.7,2.7 0,1,0 0,5.4z"/>
    <path fill="#c49c59" stroke="none" stroke-width="0" d="m108,40.5 7.2,0 0,5.4 -7.2,0z m0,5.4a2.7,2.7  0,1,0 0,-5.4z  m7.2,-5.4a2.7,2.7 0,1,0 0,5.4z"/>
    <path fill="#c49c59" stroke="none" stroke-width="0" d="m7.2,47.7 7.2,0 0,5.4 -7.2,0z m0,5.4a2.7,2.7  0,1,0 0,-5.4z  m7.2,-5.4a2.7,2.7 0,1,0 0,5.4z"/>
    <path fill="#c49c59" stroke="none" stroke-width="0" d="m7.2,26.1 7.2,0 0,5.4 -7.2,0z m0,5.4a2.7,2.7  0,1,0 0,-5.4z  m7.2,-5.4a2.7,2.7 0,1,0 0,5.4z"/>
    <path fill="#c49c59" stroke="none" stroke-width="0" d="m14.4,47.7 7.2,0 0,5.4 -7.2,0z m0,5.4a2.7,2.7  0,1,0 0,-5.4z  m7.2,-5.4a2.7,2.7 0,1,0 0,5.4z"/>
    <path fill="#c49c59" stroke="none" stroke-width="0" d="m14.4,26.1 7.2,0 0,5.4 -7.2,0z m0,5.4a2.7,2.7  0,1,0 0,-5.4z  m7.2,-5.4a2.7,2.7 0,1,0 0,5.4z"/>
    <path fill="#c49c59" stroke="none" stroke-width="0" d="m21.6,47.7 7.2,0 0,5.4 -7.2,0z m0,5.4a2.7,2.7  0,1,0 0,-5.4z  m7.2,-5.4a2.7,2.7 0,1,0 0,5.4z"/>
    <path fill="#c49c59" stroke="none" stroke-width="0" d="m21.6,26.1 7.2,0 0,5.4 -7.2,0z m0,5.4a2.7,2.7  0,1,0 0,-5.4z  m7.2,-5.4a2.7,2.7 0,1,0 0,5.4z"/>
    <path fill="#c49c59" stroke="none" stroke-width="0" d="m28.8,47.7 7.2,0 0,5.4 -7.2,0z m0,5.4a2.7,2.7  0,1,0 0,-5.4z  m7.2,-5.4a2.7,2.7 0,1,0 0,5.4z"/>
    <path fill="#c49c59" stroke="none" stroke-width="0" d="m28.8,26.1 7.2,0 0,5.4 -7.2,0z m0,5.4a2.7,2.7  0,1,0 0,-5.4z  m7.2,-5.4a2.7,2.7 0,1,0 0,5.4z"/>
    <path fill="#c49c59" stroke="none" stroke-width="0" d="m36,47.7 7.2,0 0,5.4 -7.2,0z m0,5.4a2.7,2.7  0,1,0 0,-5.4z  m7.2,-5.4a2.7,2.7 0,1,0 0,5.4z"/>
    <path fill="#c49c59" stroke="none" stroke-width="0" d="m36,26.1 7.2,0 0,5.4 -7.2,0z m0,5.4a2.7,2.7  0,1,0 0,-5.4z  m7.2,-5.4a2.7,2.7 0,1,0 0,5.4z"/>
    <path fill="#c49c59" stroke="none" stroke-width="0" d="m43.2,47.7 7.2,0 0,5.4 -7.2,0z m0,5.4a2.7,2.7  0,1,0 0,-5.4z  m7.2,-5.4a2.7,2.7 0,1,0 0,5.4z"/>
    <path fill="#c49c59" stroke="none" stroke-width="0" d="m43.2,26.1 7.2,0 0,5.4 -7.2,0z m0,5.4a2.7,2.7  0,1,0 0,-5.4z  m7.2,-5.4a2.7,2.7 0,1,0 0,5.4z"/>
    <path fill="#c49c59" stroke="none" stroke-width="0" d="m50.4,47.7 7.2,0 0,5.4 -7.2,0z m0,5.4a2.7,2.7  0,1,0 0,-5.4z  m7.2,-5.4a2.7,2.7 0,1,0 0,5.4z"/>
    <path fill="#c49c59" stroke="none" stroke-width="0" d="m50.4,26.1 7.2,0 0,5.4 -7.2,0z m0,5.4a2.7,2.7  0,1,0 0,-5.4z  m7.2,-5.4a2.7,2.7 0,1,0 0,5.4z"/>
    <path fill="#c49c59" stroke="none" stroke-width="0" d="m57.6,47.7 7.2,0 0,5.4 -7.2,0z m0,5.4a2.7,2.7  0,1,0 0,-5.4z  m7.2,-5.4a2.7,2.7 0,1,0 0,5.4z"/>
    <path fill="#c49c59" stroke="none" stroke-width="0" d="m57.6,26.1 7.2,0 0,5.4 -7.2,0z m0,5.4a2.7,2.7  0,1,0 0,-5.4z  m7.2,-5.4a2.7,2.7 0,1,0 0,5.4z"/>
    <path fill="#c49c59" stroke="none" stroke-width="0" d="m64.8,47.7 7.2,0 0,5.4 -7.2,0z m0,5.4a2.7,2.7  0,1,0 0,-5.4z  m7.2,-5.4a2.7,2.7 0,1,0 0,5.4z"/>
    <path fill="#c49c59" stroke="none" stroke-width="0" d="m64.8,26.1 7.2,0 0,5.4 -7.2,0z m0,5.4a2.7,2.7  0,1,0 0,-5.4z  m7.2,-5.4a2.7,2.7 0,1,0 0,5.4z"/>
    <path fill="#c49c59" stroke="none" stroke-width="0" d="m72,47.7 7.2,0 0,5.4 -7.2,0z m0,5.4a2.7,2.7  0,1,0 0,-5.4z  m7.2,-5.4a2.7,2.7 0,1,0 0,5.4z"/>
    <path fill="#c49c59" stroke="none" stroke-width="0" d="m72,26.1 7.2,0 0,5.4 -7.2,0z m0,5.4a2.7,2.7  0,1,0 0,-5.4z  m7.2,-5.4a2.7,2.7 0,1,0 0,5.4z"/>
    <path fill="#c49c59" stroke="none" stroke-width="0" d="m86.4,11.7 7.2,0 0,5.4 -7.2,0z m0,5.4a2.7,2.7  0,1,0 0,-5.4z  m7.2,-5.4a2.7,2.7 0,1,0 0,5.4z"/>
    <path fill="#c49c59" stroke="none" stroke-width="0" d="m93.6,11.7 7.2,0 0,5.4 -7.2,0z m0,5.4a2.7,2.7  0,1,0 0,-5.4z  m7.2,-5.4a2.7,2.7 0,1,0 0,5.4z"/>
    <path fill="#c49c59" stroke="none" stroke-width="0" d="m100.8,11.7 7.2,0 0,5.4 -7.2,0z m0,5.4a2.7,2.7  0,1,0 0,-5.4z  m7.2,-5.4a2.7,2.7 0,1,0 0,5.4z"/>
    <path fill="#c49c59" stroke="none" stroke-width="0" d="m108,11.7 7.2,0 0,5.4 -7.2,0z m0,5.4a2.7,2.7  0,1,0 0,-5.4z  m7.2,-5.4a2.7,2.7 0,1,0 0,5.4z"/>
    <path fill="#c49c59" stroke="none" stroke-width="0" d="m7.2,18.9 7.2,0 0,5.4 -7.2,0z m0,5.4a2.7,2.7  0,1,0 0,-5.4z  m7.2,-5.4a2.7,2.7 0,1,0 0,5.4z"/>
    <path fill="#c49c59" stroke="none" stroke-width="0" d="m14.4,18.9 7.2,0 0,5.4 -7.2,0z m0,5.4a2.7,2.7  0,1,0 0,-5.4z  m7.2,-5.4a2.7,2.7 0,1,0 0,5.4z"/>
    <path fill="#c49c59" stroke="none" stroke-width="0" d="m21.6,18.9 7.2,0 0,5.4 -7.2,0z m0,5.4a2.7,2.7  0,1,0 0,-5.4z  m7.2,-5.4a2.7,2.7 0,1,0 0,5.4z"/>
    <path fill="#c49c59" stroke="none" stroke-width="0" d="m28.8,18.9 7.2,0 0,5.4 -7.2,0z m0,5.4a2.7,2.7  0,1,0 0,-5.4z  m7.2,-5.4a2.7,2.7 0,1,0 0,5.4z"/>
    <path fill="#c49c59" stroke="none" stroke-width="0" d="m36,18.9 7.2,0 0,5.4 -7.2,0z m0,5.4a2.7,2.7  0,1,0 0,-5.4z  m7.2,-5.4a2.7,2.7 0,1,0 0,5.4z"/>
    <path fill="#c49c59" stroke="none" stroke-width="0" d="m43.2,18.9 7.2,0 0,5.4 -7.2,0z m0,5.4a2.7,2.7  0,1,0 0,-5.4z  m7.2,-5.4a2.7,2.7 0,1,0 0,5.4z"/>
    <path fill="#c49c59" stroke="none" stroke-width="0" d="m50.4,18.9 7.2,0 0,5.4 -7.2,0z m0,5.4a2.7,2.7  0,1,0 0,-5.4z  m7.2,-5.4a2.7,2.7 0,1,0 0,5.4z"/>
    <path fill="#c49c59" stroke="none" stroke-width="0" d="m57.6,18.9 7.2,0 0,5.4 -7.2,0z m0,5.4a2.7,2.7  0,1,0 0,-5.4z  m7.2,-5.4a2.7,2.7 0,1,0 0,5.4z"/>
    <path fill="#c49c59" stroke="none" stroke-width="0" d="m64.8,18.9 7.2,0 0,5.4 -7.2,0z m0,5.4a2.7,2.7  0,1,0 0,-5.4z  m7.2,-5.4a2.7,2.7 0,1,0 0,5.4z"/>
    <path fill="#c49c59" stroke="none" stroke-width="0" d="m7.2,40.5 7.2,0 0,5.4 -7.2,0z m0,5.4a2.7,2.7  0,1,0 0,-5.4z  m7.2,-5.4a2.7,2.7 0,1,0 0,5.4z"/>
    <path fill="#c49c59" stroke="none" stroke-width="0" d="m72,18.9 7.2,0 0,5.4 -7.2,0z m0,5.4a2.7,2.7  0,1,0 0,-5.4z  m7.2,-5.4a2.7,2.7 0,1,0 0,5.4z"/>
    <path fill="#c49c59" stroke="none" stroke-width="0" d="m14.4,40.5 7.2,0 0,5.4 -7.2,0z m0,5.4a2.7,2.7  0,1,0 0,-5.4z  m7.2,-5.4a2.7,2.7 0,1,0 0,5.4z"/>
   </g>
  </g>
 </g>
 <g partID="930030">
  <g transform="translate(118.508,3.71765)">
   <g transform="matrix(0,1,-1,0,0,0)">
    <g id="breadboard" transform="matrix(1, 0, 0, 1, 0, -216)">
     <g>
      <path stroke-opacity="1" fill="#215b78" stroke="#000000" style="fill-rule:evenodd;stroke-linecap:round;stroke-linejoin:round;stroke-miterlimit:4;stroke-dasharray:none;display:inline" fill-opacity="1" id="rect9804" stroke-width="0.216" d="m14.4,223.2c-3.9888,0,-7.2,3.2112,-7.2,7.2l0,43.2c0,3.9888,3.2112,7.2,7.2,7.2l43.2,0c3.9888,0,7.2,-3.2112,7.2,-7.2l0,-43.2c0,-3.9888,-3.2112,-7.2,-7.2,-7.2l-43.2,0zm0,2.525c2.58469,0,4.675,2.0903,4.675,4.675,0,2.5847,-2.09031,4.675,-4.675,4.675,-2.58469,0,-4.675,-2.0903,-4.675,-4.675,0,-2.5847,2.09031,-4.675,4.675,-4.675zm43.2,0c2.58469,0,4.675,2.0903,4.675,4.675,0,2.5847,-2.09031,4.675,-4.675,4.675,-2.58469,0,-4.675,-2.0903,-4.675,-4.675,0,-2.5847,2.09031,-4.675,4.675,-4.675z"/>
      <g transform="matrix(0,1,-1,0,0,0)">
       <rect width="2.16" x="243.72" y="-28.8" fill="url(#linearGradient12126)" height="1.44" stroke="none" style="fill-rule:evenodd;display:inline" fill-opacity="1" id="rect8962"/>
      </g>
      <g transform="matrix(0,1,-1,0,0,0)">
       <rect width="2.16" x="240.12" y="-28.8" fill="url(#linearGradient12123)" height="1.44" stroke="none" style="fill-rule:evenodd;display:inline" fill-opacity="1" id="rect11661"/>
      </g>
      <g transform="matrix(0,1,-1,0,0,0)">
       <rect width="2.16" x="247.32" y="-28.8" fill="url(#linearGradient12120)" height="1.44" stroke="none" style="fill-rule:evenodd;display:inline" fill-opacity="1" id="rect11665"/>
      </g>
      <g transform="matrix(0,-1,1,0,0,0)">
       <rect width="2.16" x="-245.88" y="43.2" fill="url(#linearGradient12117)" height="1.44" stroke="none" style="fill-rule:evenodd;display:inline" fill-opacity="1" id="rect11669"/>
      </g>
      <g transform="matrix(0,-1,1,0,0,0)">
       <rect width="2.16" x="-242.28" y="43.2" fill="url(#linearGradient12114)" height="1.44" stroke="none" style="fill-rule:evenodd;display:inline" fill-opacity="1" id="rect11671"/>
      </g>
      <g transform="matrix(0,-1,1,0,0,0)">
       <rect width="2.16" x="-249.48" y="43.2" fill="url(#linearGradient12111)" height="1.44" stroke="none" style="fill-rule:evenodd;display:inline" fill-opacity="1" id="rect11673"/>
      </g>
      <g transform="scale(-1,-1)">
       <rect width="2.16" x="-37.08" y="-237.6" fill="url(#linearGradient12108)" height="1.44" stroke="none" style="fill-rule:evenodd;display:inline" fill-opacity="1" id="rect11693"/>
      </g>
      <rect width="2.16" x="34.92" y="252" fill="url(#linearGradient12105)" height="1.44" stroke="none" style="fill-rule:evenodd;display:inline" fill-opacity="1" id="rect11697"/>
      <g transform="matrix(1, 0, 0, 1, -3.6, 169.2)">
       <path fill="url(#radialGradient12007)" stroke="none" style="display:inline" fill-opacity="1" id="connector5pin" d="m49.68,104.4a2.88,2.88,0,1,1,-5.76,0,2.88,2.88,0,1,1,5.76,0z"/>
      </g>
      <rect width="2.16" x="42.12" y="272.52" fill="#decd87" height="2.16" stroke="none" style="fill-rule:evenodd;display:inline" fill-opacity="1" id="rect9196"/>
      <path fill="#e9ddaf" stroke="none" style="color:#000000;marker:none;visibility:visible;display:inline;overflow:visible;enable-background:accumulate" id="path9198" stroke-width="0.36" d="m42.12,274.68,0.27,-0.27,0,-1.62,1.62,0,0.27,-0.27,-2.16,0z"/>
      <path fill="#c8ab37" stroke="none" style="color:#000000;marker:none;visibility:visible;display:inline;overflow:visible;enable-background:accumulate" id="path9200" stroke-width="0.36" d="m44.28,272.52,-0.27,0.27,0,1.62,-1.62,0,-0.27,0.27,2.16,0z"/>
      <g transform="matrix(1, 0, 0, 1, -10.8, 169.2)">
       <path fill="url(#radialGradient12009)" stroke="none" style="display:inline" fill-opacity="1" id="connector4pin" d="m49.68,104.4a2.88,2.88,0,1,1,-5.76,0,2.88,2.88,0,1,1,5.76,0z"/>
      </g>
      <g transform="matrix(1, 0, 0, 1, -18, 169.2)">
       <path fill="url(#radialGradient12011)" stroke="none" style="display:inline" fill-opacity="1" id="connector3pin" d="m49.68,104.4a2.88,2.88,0,1,1,-5.76,0,2.88,2.88,0,1,1,5.76,0z"/>
      </g>
      <g transform="matrix(1, 0, 0, 1, -25.2, 169.2)">
       <path fill="url(#radialGradient12013)" stroke="none" style="display:inline" fill-opacity="1" id="connector2pin" d="m49.68,104.4a2.88,2.88,0,1,1,-5.76,0,2.88,2.88,0,1,1,5.76,0z"/>
      </g>
      <g transform="matrix(1, 0, 0, 1, -32.4, 169.2)">
       <path fill="url(#radialGradient12015)" stroke="none" style="display:inline" fill-opacity="1" id="connector1pin" d="m49.68,104.4a2.88,2.88,0,1,1,-5.76,0,2.88,2.88,0,1,1,5.76,0z"/>
      </g>
      <g transform="matrix(1, 0, 0, 1, 10.8, 169.2)">
       <path fill="url(#radialGradient12017)" stroke="none" style="display:inline" fill-opacity="1" id="path9261" d="m49.68,104.4a2.88,2.88,0,1,1,-5.76,0,2.88,2.88,0,1,1,5.76,0z"/>
      </g>
      <g transform="matrix(1, 0, 0, 1, 3.6, 169.2)">
       <path fill="url(#radialGradient12019)" stroke="none" style="display:inline" fill-opacity="1" id="path9263" d="m49.68,104.4a2.88,2.88,0,1,1,-5.76,0,2.88,2.88,0,1,1,5.76,0z"/>
      </g>
      <rect width="2.16" x="13.32" y="272.52" fill="#decd87" height="2.16" stroke="none" style="fill-rule:evenodd;display:inline" fill-opacity="1" id="rect9275"/>
      <path fill="#ffeeaa" stroke="none" style="color:#000000;marker:none;visibility:visible;display:inline;overflow:visible;enable-background:accumulate" id="path9277" stroke-width="0.36" d="m13.32,274.68,0.27,-0.27,0,-1.62,1.62,0,0.27,-0.27,-2.16,0z"/>
      <path fill="#c8ab37" stroke="none" style="color:#000000;marker:none;visibility:visible;display:inline;overflow:visible;enable-background:accumulate" id="path9279" stroke-width="0.36" d="m15.48,272.52,-0.27,0.27,0,1.62,-1.62,0,-0.27,0.27,2.16,0z"/>
      <rect width="2.16" x="20.52" y="272.52" fill="#decd87" height="2.16" stroke="none" style="fill-rule:evenodd;display:inline" fill-opacity="1" id="rect9283"/>
      <path fill="#e9ddaf" stroke="none" style="color:#000000;marker:none;visibility:visible;display:inline;overflow:visible;enable-background:accumulate" id="path9285" stroke-width="0.36" d="m20.52,274.68,0.27,-0.27,0,-1.62,1.62,0,0.27,-0.27,-2.16,0z"/>
      <path fill="#c8ab37" stroke="none" style="color:#000000;marker:none;visibility:visible;display:inline;overflow:visible;enable-background:accumulate" id="path9287" stroke-width="0.36" d="m22.68,272.52,-0.27,0.27,0,1.62,-1.62,0,-0.27,0.27,2.16,0z"/>
      <rect width="2.16" x="27.72" y="272.52" fill="#decd87" height="2.16" stroke="none" style="fill-rule:evenodd;display:inline" fill-opacity="1" id="rect9291"/>
      <path fill="#e9ddaf" stroke="none" style="color:#000000;marker:none;visibility:visible;display:inline;overflow:visible;enable-background:accumulate" id="path9293" stroke-width="0.36" d="m27.72,274.68,0.27,-0.27,0,-1.62,1.62,0,0.27,-0.27,-2.16,0z"/>
      <path fill="#c8ab37" stroke="none" style="color:#000000;marker:none;visibility:visible;display:inline;overflow:visible;enable-background:accumulate" id="path9295" stroke-width="0.36" d="m29.88,272.52,-0.27,0.27,0,1.62,-1.62,0,-0.27,0.27,2.16,0z"/>
      <rect width="2.16" x="34.92" y="272.52" fill="#decd87" height="2.16" stroke="none" style="fill-rule:evenodd;display:inline" fill-opacity="1" id="rect9299"/>
      <path fill="#e9ddaf" stroke="none" style="color:#000000;marker:none;visibility:visible;display:inline;overflow:visible;enable-background:accumulate" id="path9301" stroke-width="0.36" d="m34.92,274.68,0.27,-0.27,0,-1.62,1.62,0,0.27,-0.27,-2.16,0z"/>
      <path fill="#c8ab37" stroke="none" style="color:#000000;marker:none;visibility:visible;display:inline;overflow:visible;enable-background:accumulate" id="path9303" stroke-width="0.36" d="m37.08,272.52,-0.27,0.27,0,1.62,-1.62,0,-0.27,0.27,2.16,0z"/>
      <g transform="matrix(1, 0, 0, 1, 10.8, 169.2)">
       <path fill="url(#radialGradient12021)" stroke="none" style="display:inline" fill-opacity="1" id="connector7pin" d="m49.68,104.4a2.88,2.88,0,1,1,-5.76,0,2.88,2.88,0,1,1,5.76,0z"/>
      </g>
      <g transform="matrix(1, 0, 0, 1, 3.6, 169.2)">
       <path fill="url(#radialGradient12023)" stroke="none" style="display:inline" fill-opacity="1" id="connector6pin" d="m49.68,104.4a2.88,2.88,0,1,1,-5.76,0,2.88,2.88,0,1,1,5.76,0z"/>
      </g>
      <rect width="2.16" x="49.32" y="272.52" fill="#decd87" height="2.16" stroke="none" style="fill-rule:evenodd;display:inline" fill-opacity="1" id="rect9315"/>
      <path fill="#e9ddaf" stroke="none" style="color:#000000;marker:none;visibility:visible;display:inline;overflow:visible;enable-background:accumulate" id="path9317" stroke-width="0.36" d="m49.32,274.68,0.27,-0.27,0,-1.62,1.62,0,0.27,-0.27,-2.16,0z"/>
      <path fill="#c8ab37" stroke="none" style="color:#000000;marker:none;visibility:visible;display:inline;overflow:visible;enable-background:accumulate" id="path9319" stroke-width="0.36" d="m51.48,272.52,-0.27,0.27,0,1.62,-1.62,0,-0.27,0.27,2.16,0z"/>
      <rect width="2.16" x="56.52" y="272.52" fill="#decd87" height="2.16" stroke="none" style="fill-rule:evenodd;display:inline" fill-opacity="1" id="rect9323"/>
      <path fill="#e9ddaf" stroke="none" style="color:#000000;marker:none;visibility:visible;display:inline;overflow:visible;enable-background:accumulate" id="path9325" stroke-width="0.36" d="m56.52,274.68,0.27,-0.27,0,-1.62,1.62,0,0.27,-0.27,-2.16,0z"/>
      <path fill="#c8ab37" stroke="none" style="color:#000000;marker:none;visibility:visible;display:inline;overflow:visible;enable-background:accumulate" id="path9327" stroke-width="0.36" d="m58.68,272.52,-0.27,0.27,0,1.62,-1.62,0,-0.27,0.27,2.16,0z"/>
      <g transform="matrix(1, 0, 0, 1, 3.6, 219.6)">
       <path stroke-opacity="1" fill="none" stroke="#ecc98a" style="stroke-linecap:butt;stroke-linejoin:miter;stroke-miterlimit:4;stroke-dasharray:none;display:inline" id="path6949" stroke-width="1.08" d="M15.48,10.8A4.68,4.68,0,1,1,6.12,10.8,4.68,4.68,0,1,1,15.48,10.8z"/>
      </g>
      <g transform="matrix(1, 0, 0, 1, 3.6, 219.6)">
       <path stroke-opacity="1" fill="none" stroke="#ffffff" style="stroke-miterlimit:4;stroke-dasharray:none;display:inline" id="path6970" stroke-width="0.144" d="M16.56,10.8A5.76,5.76,0,1,1,5.04,10.8,5.76,5.76,0,1,1,16.56,10.8z"/>
      </g>
      <g transform="matrix(1, 0, 0, 1, 46.8, 219.6)">
       <path stroke-opacity="1" fill="none" stroke="#ecc98a" style="stroke-linecap:butt;stroke-linejoin:miter;stroke-miterlimit:4;stroke-dasharray:none;display:inline" id="path11465" stroke-width="1.08" d="M15.48,10.8A4.68,4.68,0,1,1,6.12,10.8,4.68,4.68,0,1,1,15.48,10.8z"/>
      </g>
      <g transform="matrix(1, 0, 0, 1, 46.8, 219.6)">
       <path stroke-opacity="1" fill="none" stroke="#ffffff" style="stroke-miterlimit:4;stroke-dasharray:none;display:inline" id="path11467" stroke-width="0.144" d="M16.56,10.8A5.76,5.76,0,1,1,5.04,10.8,5.76,5.76,0,1,1,16.56,10.8z"/>
      </g>
      <g fill="#000000" stroke="none" xmlns:xml="http://www.w3.org/XML/1998/namespace" style="font-style:normal;font-variant:normal;font-weight:normal;font-stretch:normal;text-align:start;line-height:125%;letter-spacing:0px;word-spacing:0px;text-anchor:start;display:inline;font-family:OCRA;-inkscape-font-specification:OCRA" fill-opacity="1" id="text11701" xml:space="preserve" transform="matrix(0,-1,1,0,0,0)" font-size="10px">
       <text x="-270.72" y="15.84" fill="#ffffff" style="text-align:start;text-anchor:start;" id="tspan11703" font-size="0">VIN</text>
      </g>
      <g fill="#000000" stroke="none" xmlns:xml="http://www.w3.org/XML/1998/namespace" style="font-style:normal;font-variant:normal;font-weight:normal;font-stretch:normal;text-align:start;line-height:125%;letter-spacing:0px;word-spacing:0px;text-anchor:start;display:inline;font-family:OCRA;-inkscape-font-specification:OCRA" fill-opacity="1" id="text11705" xml:space="preserve" transform="matrix(0,-1,1,0,0,0)" font-size="10px">
       <text x="-270.72" y="23.057" fill="#ffffff" style="text-align:start;text-anchor:start;" id="tspan11707" font-size="0">3Vo</text>
      </g>
      <g fill="#000000" stroke="none" xmlns:xml="http://www.w3.org/XML/1998/namespace" style="font-style:normal;font-variant:normal;font-weight:normal;font-stretch:normal;text-align:start;line-height:125%;letter-spacing:0px;word-spacing:0px;text-anchor:start;display:inline;font-family:OCRA;-inkscape-font-specification:OCRA" fill-opacity="1" id="text11709" xml:space="preserve" transform="matrix(0,-1,1,0,0,0)" font-size="10px">
       <text x="-270.72" y="30.257" fill="#ffffff" style="text-align:start;text-anchor:start;" id="tspan11711" font-size="0">SCL</text>
      </g>
      <g fill="#000000" stroke="none" xmlns:xml="http://www.w3.org/XML/1998/namespace" style="font-style:normal;font-variant:normal;font-weight:normal;font-stretch:normal;text-align:start;line-height:125%;letter-spacing:0px;word-spacing:0px;text-anchor:start;display:inline;font-family:OCRA;-inkscape-font-specification:OCRA" fill-opacity="1" id="text11713" xml:space="preserve" transform="matrix(0,-1,1,0,0,0)" font-size="10px">
       <text x="-270.72" y="37.4739" fill="#ffffff" style="text-align:start;text-anchor:start;" id="tspan11715" font-size="0">SDA</text>
      </g>
      <g fill="#000000" stroke="none" xmlns:xml="http://www.w3.org/XML/1998/namespace" style="font-style:normal;font-variant:normal;font-weight:normal;font-stretch:normal;text-align:start;line-height:125%;letter-spacing:0px;word-spacing:0px;text-anchor:start;display:inline;font-family:OCRA;-inkscape-font-specification:OCRA" fill-opacity="1" id="text11717" xml:space="preserve" transform="matrix(0,-1,1,0,0,0)" font-size="10px">
       <text x="-270.72" y="44.657" fill="#ffffff" style="text-align:start;text-anchor:start;" id="tspan11719" font-size="0">XCLR</text>
      </g>
      <g fill="#000000" stroke="none" xmlns:xml="http://www.w3.org/XML/1998/namespace" style="font-style:normal;font-variant:normal;font-weight:normal;font-stretch:normal;text-align:start;line-height:125%;letter-spacing:0px;word-spacing:0px;text-anchor:start;display:inline;font-family:OCRA;-inkscape-font-specification:OCRA" fill-opacity="1" id="text11721" xml:space="preserve" transform="matrix(0,-1,1,0,0,0)" font-size="10px">
       <text x="-270.72" y="51.8739" fill="#ffffff" style="text-align:start;text-anchor:start;" id="tspan11723" font-size="0">EOC</text>
      </g>
      <g fill="#000000" stroke="none" xmlns:xml="http://www.w3.org/XML/1998/namespace" style="font-style:normal;font-variant:normal;font-weight:normal;font-stretch:normal;text-align:start;line-height:125%;letter-spacing:0px;word-spacing:0px;text-anchor:start;display:inline;font-family:OCRA;-inkscape-font-specification:OCRA" fill-opacity="1" id="text11725" xml:space="preserve" transform="matrix(0,-1,1,0,0,0)" font-size="10px">
       <text x="-270.72" y="59.0739" fill="#ffffff" style="text-align:start;text-anchor:start;" id="tspan11727" font-size="0">GND</text>
      </g>
      <path stroke-opacity="1" fill="#ffffff" stroke="#ffffff" style="color:#000000;stroke-linecap:round;stroke-linejoin:round;stroke-miterlimit:4;stroke-dasharray:none;stroke-dashoffset:0;marker:none;visibility:visible;display:inline;overflow:visible;enable-background:accumulate" fill-opacity="1" id="path9389" stroke-width="0.36" d="m21.564,279,-1.44,-1.8,2.88,0z"/>
      <path stroke-opacity="1" fill="#ffffff" stroke="#ffffff" style="color:#000000;stroke-linecap:round;stroke-linejoin:round;stroke-miterlimit:4;stroke-dasharray:none;stroke-dashoffset:0;marker:none;visibility:visible;display:inline;overflow:visible;enable-background:accumulate" fill-opacity="1" id="path11747" stroke-width="0.36" d="m50.4,279,-1.44,-1.8,2.88,0z"/>
      <path stroke-opacity="1" fill="#ffffff" stroke="#ffffff" style="color:#000000;stroke-linecap:round;stroke-linejoin:round;stroke-miterlimit:4;stroke-dasharray:none;stroke-dashoffset:0;marker:none;visibility:visible;display:inline;overflow:visible;enable-background:accumulate" fill-opacity="1" id="path11749" stroke-width="0.36" d="m57.6,277.2,1.44,1.8,-2.88,0z"/>
      <path stroke-opacity="1" fill="#ffffff" stroke="#ffffff" style="color:#000000;stroke-linecap:round;stroke-linejoin:round;stroke-miterlimit:4;stroke-dasharray:none;stroke-dashoffset:0;marker:none;visibility:visible;display:inline;overflow:visible;enable-background:accumulate" fill-opacity="1" id="path11751" stroke-width="0.36" d="m43.2,277.2,1.44,1.8,-2.88,0z"/>
      <path stroke-opacity="1" fill="#ffffff" stroke="#ffffff" style="color:#000000;stroke-linecap:round;stroke-linejoin:round;stroke-miterlimit:4;stroke-dasharray:none;stroke-dashoffset:0;marker:none;visibility:visible;display:inline;overflow:visible;enable-background:accumulate" fill-opacity="1" id="path11753" stroke-width="0.36" d="m36,277.2,1.44,1.8,-2.88,0z"/>
      <path stroke-opacity="1" fill="#ffffff" stroke="#ffffff" style="color:#000000;stroke-linecap:round;stroke-linejoin:round;stroke-miterlimit:4;stroke-dasharray:none;stroke-dashoffset:0;marker:none;visibility:visible;display:inline;overflow:visible;enable-background:accumulate" fill-opacity="1" id="path11755" stroke-width="0.36" d="m28.8,277.2,1.44,1.8,-2.88,0z"/>
      <path stroke-opacity="1" fill="#ffffff" stroke="#ffffff" style="color:#000000;stroke-linecap:round;stroke-linejoin:round;stroke-miterlimit:4;stroke-dasharray:none;stroke-dashoffset:0;marker:none;visibility:visible;display:inline;overflow:visible;enable-background:accumulate" fill-opacity="1" id="path11757" stroke-width="0.36" d="m14.4,277.2,1.44,1.8,-2.88,0z"/>
      <g fill="#000000" stroke="none" xmlns:xml="http://www.w3.org/XML/1998/namespace" style="font-style:normal;font-variant:normal;font-weight:normal;font-stretch:normal;text-align:start;line-height:125%;letter-spacing:0px;word-spacing:0px;text-anchor:start;display:inline;font-family:OCRA;-inkscape-font-specification:OCRA" fill-opacity="1" id="text11759" xml:space="preserve" font-size="10px">
       <text x="28.44" y="227.16" fill="#ffffff" style="text-align:start;text-anchor:start;" id="tspan11761" font-size="0">BMP085</text>
      </g>
      <g fill="#000000" stroke="none" xmlns:xml="http://www.w3.org/XML/1998/namespace" style="font-style:normal;font-variant:normal;font-weight:normal;font-stretch:normal;text-align:start;line-height:125%;letter-spacing:0px;word-spacing:0px;text-anchor:start;display:inline;font-family:OCRA;-inkscape-font-specification:OCRA" fill-opacity="1" id="text11763" xml:space="preserve" font-size="10px">
       <text x="28.44" y="231.12" fill="#ffffff" style="text-align:start;text-anchor:start;" id="tspan11765" font-size="0">PRESSURE</text>
      </g>
      <g fill="#000000" stroke="none" xmlns:xml="http://www.w3.org/XML/1998/namespace" style="font-style:normal;font-variant:normal;font-weight:normal;font-stretch:normal;text-align:start;line-height:125%;letter-spacing:0px;word-spacing:0px;text-anchor:start;display:inline;font-family:OCRA;-inkscape-font-specification:OCRA" fill-opacity="1" id="text11767" xml:space="preserve" font-size="10px">
       <text x="28.44" y="235.08" fill="#ffffff" style="text-align:start;text-anchor:start;" id="tspan11769" font-size="0">SENSOR</text>
      </g>
      <path fill="#ffffff" stroke="none" style="display:inline;overflow:visible" fill-opacity="1" id="path12631" d="m28.1921,229.021c-0.022448,-0.140768,-0.0986968,-0.18076,-0.282574,-0.239768,-0.13981,-0.04472,-1.0762,-0.343072,-1.0762,-0.343072,0,0,-0.652327,-0.246352,-1.13614,0.102264,-0.065216,0.0468,-0.13248,0.100336,-0.200414,0.157488,0.057088,-0.06792,0.110369,-0.135456,0.157262,-0.200688,0.347627,-0.484336,0.100072,-1.1364,0.100072,-1.1364,0,0,-0.299927,-0.935752,-0.345005,-1.07551,-0.059384,-0.183872,-0.0995032,-0.259952,-0.240151,-0.282032,-0.140616,-0.02224,-0.202306,0.038,-0.315134,0.194672,-0.0858456,0.119088,-0.658913,0.91736,-0.658913,0.91736,0,0,-0.43587,0.544448,-0.253863,1.11224,0.024456,0.07648,0.054488,0.15708,0.0879528,0.23932,-0.047072,-0.07536,-0.0947856,-0.14688,-0.142323,-0.211608,-0.353334,-0.480192,-1.04984,-0.4464,-1.04984,-0.4464,0,0,-0.982632,-0.004,-1.12955,-0.004,-0.193108,-0.000384,-0.277889,0.01432,-0.342448,0.141152,-0.064576,0.126944,-0.026312,0.204168,0.08778,0.35992,0.086716,0.118472,0.668864,0.910208,0.668864,0.910208,0,0,0.383194,0.582744,0.979279,0.585208,0.080096,0.000344,0.165954,-0.0032,0.254238,-0.0096,-0.0859432,0.02144,-0.168586,0.04472,-0.244546,0.06984,-0.565966,0.187656,-0.749004,0.860552,-0.749004,0.860552,0,0,-0.307332,0.933352,-0.353108,1.07291,-0.060024,0.183544,-0.072288,0.268768,0.028424,0.369336,0.100834,0.100584,0.185982,0.08824,0.369429,0.02776,0.139563,-0.04584,1.07232,-0.354864,1.07232,-0.354864,0,0,0.672647,-0.184392,0.859167,-0.750688,0.025056,-0.076,0.04812,-0.158384,0.069376,-0.244256,-0.00608,0.08816,-0.009544,0.173768,-0.009096,0.25388,0.00352,0.596152,0.58695,0.978248,0.58695,0.978248,0,0,0.792706,0.580608,0.911228,0.667296,0.156078,0.113736,0.233306,0.151744,0.360135,0.087016,0.126894,-0.0648,0.141357,-0.149592,0.140551,-0.342776,-0.0004984,-0.146792,-0.00616,-1.12949,-0.00616,-1.12949,0,0,0.032648,-0.69656,-0.448291,-1.04897,-0.064656,-0.04728,-0.136026,-0.094904,-0.211289,-0.141704,0.0821608,0.0332,0.16259,0.06296,0.238916,0.087168,0.568104,0.181032,1.11172,-0.255776,1.11172,-0.255776,0,0,0.797401,-0.574424,0.91631,-0.660592,0.156411,-0.113168,0.216457,-0.17496,0.194086,-0.315432zm-3.38436,-0.72352c0.107166,0.0168,0.160377,0.244816,0.118673,0.509104,-0.04152,0.26428,-0.16217,0.464824,-0.26941,0.447976,-0.107229,-0.01696,-0.160409,-0.244832,-0.118748,-0.509112,0.041608,-0.264352,0.162203,-0.464984,0.269486,-0.447968zm-1.37265,0.700864c0.049232,-0.09676,0.282369,-0.07688,0.520898,0.0444,0.238506,0.121224,0.391995,0.297968,0.342866,0.394584,-0.049256,0.096816,-0.282402,0.07688,-0.520985,-0.04424,-0.238518,-0.121304,-0.391974,-0.29804,-0.34278,-0.394792zm0.723826,1.3181c-0.189034,0.18932,-0.404578,0.280688,-0.48144,0.203952,-0.076736,-0.07656,0.014328,-0.29228,0.203348,-0.481664,0.18897,-0.189408,0.404492,-0.280776,0.481301,-0.20404,0.076736,0.07664,-0.014216,0.29236,-0.203209,0.481752zm1.04112,0.443784c-0.096708,0.04936,-0.273623,-0.1038,-0.39524,-0.342112,-0.121757,-0.238248,-0.142077,-0.471584,-0.045448,-0.52092,0.0965808,-0.04928,0.273569,0.103944,0.395284,0.342112,0.121714,0.238256,0.142034,0.471488,0.0454,0.52092zm0.251005,-1.10366c-0.264243,0.04208,-0.492282,-0.01072,-0.509401,-0.117776,-0.016936,-0.107232,0.183382,-0.228248,0.447538,-0.270224,0.264329,-0.04224,0.492284,0.01056,0.509304,0.1178,0.01712,0.107024,-0.18321,0.228104,-0.447442,0.2702z"/>
      <rect width="14.4" x="28.8" y="237.6" stroke-opacity="1" fill="url(#linearGradient12040)" rx="0.72" height="14.4" stroke="#3d3d3d" style="fill-rule:evenodd;stroke-miterlimit:4;stroke-dasharray:none;display:inline" fill-opacity="1" id="rect11476" stroke-width="0.288"/>
      <g transform="matrix(1, 0, 0, 1, 0, 216)">
       <path fill="#0b2228" stroke="none" style="fill-rule:evenodd;display:inline" fill-opacity="1" id="path11508" d="m36.72,28.8a0.72,0.72,0,1,1,-1.44,0,0.72,0.72,0,1,1,1.44,0z"/>
      </g>
      <g fill="#000000" fill-opacity="0.10326089" id="g11820">
       <rect width="10.08" x="30.96" y="255.24" fill="#000000" height="5.75997" stroke="none" style="fill-rule:evenodd;" fill-opacity="0.10326089" id="rect11789"/>
       <rect width="10.08" x="19.44" y="254.88" fill="#000000" height="5.75997" stroke="none" style="fill-rule:evenodd;" fill-opacity="0.10326089" id="rect11791"/>
       <rect width="10.08" x="8.28" y="255.96" fill="#000000" height="5.75997" stroke="none" style="fill-rule:evenodd;" fill-opacity="0.10326089" id="rect11793"/>
       <rect width="9.36" x="9.36" y="246.96" fill="#000000" height="5.04" stroke="none" style="fill-rule:evenodd;" fill-opacity="0.10326089" id="rect11798"/>
       <rect width="10.08" x="8.64" y="239.04" fill="#000000" height="5.75997" stroke="none" style="fill-rule:evenodd;" fill-opacity="0.10326089" id="rect11800"/>
       <g transform="matrix(0,-1,1,0,0,0)">
        <rect width="9.36" x="-259.92" y="46.08" fill="#000000" height="5.04" stroke="none" style="fill-rule:evenodd;" fill-opacity="0.10326089" id="rect11802"/>
       </g>
       <g transform="matrix(0,1,-1,0,0,0)">
        <rect width="10.08" x="250.56" y="-60.48" fill="#000000" height="5.75997" stroke="none" style="fill-rule:evenodd;" fill-opacity="0.10326089" id="rect11804"/>
       </g>
       <g transform="matrix(0,1,-1,0,0,0)">
        <rect width="10.08" x="239.04" y="-61.92" fill="#000000" height="5.75997" stroke="none" style="fill-rule:evenodd;" fill-opacity="0.10326089" id="rect11806"/>
       </g>
       <rect width="9.36" x="45.36" y="241.92" fill="#000000" height="5.04" stroke="none" style="fill-rule:evenodd;" fill-opacity="0.10326089" id="rect11808"/>
       <g transform="matrix(0,-1,1,0,0,0)">
        <rect width="9.36" x="-246.96" y="20.88" fill="#000000" height="5.04" stroke="none" style="fill-rule:evenodd;" fill-opacity="0.10326089" id="rect11810"/>
       </g>
      </g>
     </g>
    </g>
   </g>
  </g>
 </g>
 <g partID="930070">
  <g transform="translate(193.672,10.916)">
   <g transform="matrix(0,1,-1,0,0,0)">
    <g  id="breadboard">
     <g  id="Capa_x0020_1">
      <metadata  id="CorelCorpID_0Corel-Layer"/>
      <g  id="_144824656">
       <g  id="g3000">
        <rect width="31.0334" x="2.50951" y="1.73877" fill="#e6e6e6"  rx="8.10312" height="47.1013" ry="8.10312" id="_144825976"/>
        <ellipse fill="#1e1e1e" cx="18.2372"  cy="8.08526" rx="2.93746" ry="3.03591" stroke="#1e1e1e" id="_144821416" stroke-width="0.216"/>
       </g>
       <g  id="g3004">
        <rect width="31.7772" x="2.81027" y="18.4986" fill="#c3c3c3"  height="31.1253" id="_144822136"/>
        <rect width="2.63452" x="2.80233" y="12.3885" fill="#c3c3c3"  rx="0.19389" height="10.9934" ry="0.19389" id="_144818704"/>
        <rect width="2.60249" x="31.9992" y="12.3885" fill="#c3c3c3"  rx="0.19389" height="10.9934" ry="0.19389" id="_144826744"/>
        <rect width="2.63452" x="2.80233" y="43.7224" fill="#c3c3c3"  rx="0.646299" height="10.3522" ry="0.646299" id="_144823288"/>
        <rect width="4.60517" x="29.982" y="48.3364" fill="#c3c3c3"  rx="0.646299" height="5.73823" ry="0.646299" id="_144827656"/>
        <rect width="27.6879" x="4.85861" y="15.0415" fill="#c3c3c3"  height="36.5658" id="_144829120"/>
        <rect width="29.2963" x="3.88715" y="12.327" fill="#c3c3c3"  height="41.7475" id="_144820960"/>
       </g>
       <g  id="g3013">
        <line class="fil3 str1" fill="none"  stroke="#8c8c8c" id="_144824728" y1="53.6723" x1="21.5059" y2="62.8965" stroke-width="2.16" x2="21.5133"/>
        <line class="fil3 str1" fill="none"  stroke="#8c8c8c" id="_144822016" y1="53.6661" x1="28.7059" y2="62.8903" stroke-width="2.16" x2="28.7133"/>
        <line class="fil3 str1" fill="none"  stroke="#8c8c8c" id="_144829456" y1="53.6661" x1="7.10589" y2="62.8903" stroke-width="2.16" x2="7.11326"/>
        <line class="fil3 str1" fill="none"  stroke="#8c8c8c" id="_144819832" y1="53.6661" x1="14.3059" y2="62.8903" stroke-width="2.16" x2="14.3133"/>
       </g>
       <g  id="g3019">
        <g  id="g3021">
         <rect width="7.17931" x="26.4793" y="19.4824" fill="#cbcbcb"  height="2.664" id="_144826048"/>
         <rect width="7.17931" x="26.4793" y="24.8682" fill="#cbcbcb"  height="2.664" id="_144823816"/>
         <rect width="7.17562" x="26.483" y="30.2539" fill="#cbcbcb"  height="2.664" id="_144826288"/>
         <rect width="7.17902" x="26.4796" y="35.6397" fill="#cbcbcb"  height="2.664" id="_144823936"/>
         <rect width="7.17931" x="26.4793" y="41.0255" fill="#cbcbcb"  height="2.664" id="_144820816"/>
        </g>
        <g  id="g3028">
         <rect width="1.99559" x="2.45254" y="19.4824" fill="#cbcbcb"  height="2.664" id="_144817768"/>
         <rect width="1.99559" x="2.45254" y="24.8682" fill="#cbcbcb"  height="2.664" id="_144819880"/>
         <rect width="1.99559" x="2.45254" y="30.2539" fill="#cbcbcb"  height="2.664" id="_144822112"/>
         <rect width="1.99559" x="2.45254" y="35.6397" fill="#cbcbcb"  height="2.664" id="_144820576"/>
         <rect width="1.99559" x="2.45254" y="41.0255" fill="#cbcbcb"  height="2.664" id="_144821872"/>
        </g>
       </g>
       <g  id="g3035">
        <g  id="g3037">
         <rect width="2.664" x="11.7439" y="19.4818" fill="#1e1e1e"  height="2.66406" id="_144818008"/>
         <rect width="2.664" x="16.8463" y="19.4818" fill="#1e1e1e"  height="2.66406" id="_144821656"/>
         <rect width="2.664" x="21.6652" y="19.4818" fill="#1e1e1e"  height="2.66406" id="_144829816"/>
         <path fill="#1e1e1e"  id="_144831328" d="m26.4841,19.4817,4.48668,0c0.587055,0,1.06668,0.237827,1.06668,0.528945l0,1.60611c0,0.291118,-0.479622,0.529228,-1.06668,0.529228l-4.48668,0,0,-2.66428z"/>
         <rect width="4.8566" x="4.44898" y="19.4818" fill="#1e1e1e"  height="2.66406" id="_144827224"/>
        </g>
        <g  id="g3044">
         <rect width="2.664" x="11.7439" y="24.8676" fill="#1e1e1e"  height="2.66406" id="_144824824"/>
         <rect width="2.664" x="16.8463" y="24.8676" fill="#1e1e1e"  height="2.66406" id="_144817504"/>
         <rect width="2.664" x="21.6652" y="24.8676" fill="#1e1e1e"  height="2.66406" id="_144825928"/>
         <path fill="#1e1e1e"  id="_144829048" d="m26.4841,24.8675,4.48668,0c0.587055,0,1.06668,0.237827,1.06668,0.528945l0,1.60611c0,0.291118,-0.479622,0.529228,-1.06668,0.529228l-4.48668,0,0,-2.66428z"/>
         <rect width="4.8566" x="4.44898" y="24.8676" fill="#1e1e1e"  height="2.66406" id="_144825112"/>
        </g>
        <g  id="g3051">
         <rect width="2.664" x="11.7439" y="30.2533" fill="#1e1e1e"  height="2.66406" id="_144821512"/>
         <rect width="2.664" x="16.8463" y="30.2533" fill="#1e1e1e"  height="2.66406" id="_144822784"/>
         <rect width="2.664" x="21.6652" y="30.2533" fill="#1e1e1e"  height="2.66406" id="_144822664"/>
         <path fill="#1e1e1e"  id="_144820672" d="m26.4841,30.2533,4.48668,0c0.587055,0,1.06668,0.237827,1.06668,0.528945l0,1.60611c0,0.291118,-0.479622,0.529228,-1.06668,0.529228l-4.48668,0,0,-2.66428z"/>
         <rect width="4.8566" x="4.44898" y="30.2533" fill="#1e1e1e"  height="2.66406" id="_144824752"/>
        </g>
        <g  id="g3058">
         <rect width="2.664" x="11.7439" y="35.6391" fill="#1e1e1e"  height="2.66406" id="_144828472"/>
         <rect width="2.664" x="16.8463" y="35.6391" fill="#1e1e1e"  height="2.66406" id="_144821968"/>
         <rect width="2.664" x="21.6652" y="35.6391" fill="#1e1e1e"  height="2.66406" id="_144828256"/>
         <path fill="#1e1e1e"  id="_144828376" d="m26.4841,35.6391,4.48668,0c0.587055,0,1.06668,0.237827,1.06668,0.528945l0,1.60611c0,0.291118,-0.479622,0.529228,-1.06668,0.529228l-4.48668,0,0,-2.66428z"/>
         <rect width="4.8566" x="4.44898" y="35.6391" fill="#1e1e1e"  height="2.66406" id="_144823504"/>
        </g>
        <g  id="g3065">
         <rect width="2.664" x="11.7439" y="41.025" fill="#1e1e1e"  height="2.66406" id="_144825784"/>
         <rect width="2.664" x="16.8463" y="41.025" fill="#1e1e1e"  height="2.66406" id="_144826936"/>
         <rect width="2.664" x="21.6652" y="41.025" fill="#1e1e1e"  height="2.66406" id="_144826912"/>
         <path fill="#1e1e1e"  id="_144827152" d="m26.4841,41.025,4.48668,0c0.587055,0,1.06668,0.237827,1.06668,0.528945l0,1.60611c0,0.291118,-0.479622,0.529228,-1.06668,0.529228l-4.48668,0,0,-2.66428z"/>
         <rect width="4.8566" x="4.44898" y="41.025" fill="#1e1e1e"  height="2.66406" id="_144827080"/>
        </g>
       </g>
       <g  id="g3072">
        <g  id="g3074">
         <g  id="g3076">
          <g  id="g3078">
           <rect width="2.43751" x="9.30671" y="12.0137" fill="#f0f0f0"  height="39.6357" id="_144817024"/>
           <rect width="2.42306" x="9.31876" y="11.215" fill="#f0f0f0"  rx="0.166677" height="2.12326" ry="0.166677" id="_144817168"/>
          </g>
          <g  id="g3082">
           <rect width="2.43751" x="14.4091" y="12.0137" fill="#f0f0f0"  height="39.6357" id="_144817240"/>
           <rect width="2.42306" x="14.4211" y="11.215" fill="#f0f0f0"  rx="0.166677" height="2.12326" ry="0.166677" id="_144816328"/>
          </g>
          <g  id="g3086">
           <rect width="2.43751" x="19.5114" y="12.0137" fill="#f0f0f0"  height="39.6357" id="_144815368"/>
           <rect width="2.42306" x="19.5235" y="11.215" fill="#f0f0f0"  rx="0.166677" height="2.12326" ry="0.166677" id="_144818248"/>
          </g>
          <g  id="g3090">
           <rect width="2.43751" x="24.3303" y="12.0137" fill="#f0f0f0"  height="39.6357" id="_144817960"/>
           <rect width="2.42306" x="24.3424" y="11.215" fill="#f0f0f0"  rx="0.166677" height="2.12326" ry="0.166677" id="_144818128"/>
          </g>
         </g>
         <g  id="g3094">
          <g  id="g3096">
           <rect width="30.714" x="2.81424" y="15.9148" fill="#f0f0f0"  height="3.55861" id="_144817864"/>
           <rect width="3.41603" x="1.88787" y="15.9231" fill="#f0f0f0"  rx="0.256252" height="3.55833" ry="0.256252" id="_144817720"/>
           <rect width="3.5606" x="30.5178" y="15.9231" fill="#f0f0f0"  rx="0.256252" height="3.55833" ry="0.256252" id="_144817408"/>
          </g>
          <g  id="g3101">
           <rect width="30.714" x="2.81424" y="22.1899" fill="#f0f0f0"  height="2.66684" id="_144817744"/>
           <rect width="3.41603" x="1.88787" y="22.196" fill="#f0f0f0"  rx="0.256252" height="2.66663" ry="0.256252" id="_144828448"/>
           <rect width="3.5606" x="30.5178" y="22.196" fill="#f0f0f0"  rx="0.256252" height="2.66663" ry="0.256252" id="_144815320"/>
          </g>
          <g  id="g3106">
           <rect width="30.714" x="2.81424" y="27.5355" fill="#f0f0f0"  height="2.707" id="_144826264"/>
           <rect width="3.41603" x="1.88787" y="27.5417" fill="#f0f0f0"  rx="0.256252" height="2.70679" ry="0.256252" id="_144825736"/>
           <rect width="3.5606" x="30.5178" y="27.5417" fill="#f0f0f0"  rx="0.256252" height="2.70679" ry="0.256252" id="_144821320"/>
          </g>
          <g  id="g3111">
           <rect width="30.714" x="2.81424" y="32.9213" fill="#f0f0f0"  height="2.707" id="_144828688"/>
           <rect width="3.41603" x="1.88787" y="32.9275" fill="#f0f0f0"  rx="0.256252" height="2.70679" ry="0.256252" id="_144819808"/>
           <rect width="3.5606" x="30.5178" y="32.9275" fill="#f0f0f0"  rx="0.256252" height="2.70679" ry="0.256252" id="_144820288"/>
          </g>
          <g  id="g3116">
           <rect width="30.714" x="2.81424" y="38.3071" fill="#f0f0f0"  height="2.707" id="_144820888"/>
           <rect width="3.41603" x="1.88787" y="38.3134" fill="#f0f0f0"  rx="0.256252" height="2.70679" ry="0.256252" id="_144819568"/>
           <rect width="3.5606" x="30.5178" y="38.3134" fill="#f0f0f0"  rx="0.256252" height="2.70679" ry="0.256252" id="_144818536"/>
          </g>
         </g>
        </g>
        <g  id="g3121">
         <g  id="g3123">
          <rect width="31.7772" x="2.24334" y="45.1397" fill="#f0f0f0"  height="7.32104" id="_144827800"/>
          <rect width="2.63452" x="2.2354" y="43.7026" fill="#f0f0f0"  rx="0.19389" height="2.58576" ry="0.19389" id="_144826000"/>
          <rect width="2.60249" x="31.4323" y="43.7026" fill="#f0f0f0"  rx="0.19389" height="2.58576" ry="0.19389" id="_144827488"/>
          <rect width="2.63452" x="2.2354" y="51.0727" fill="#f0f0f0"  rx="0.646299" height="2.43496" ry="0.646299" id="_144825808"/>
          <rect width="2.58803" x="31.4323" y="51.0727" fill="#f0f0f0"  rx="0.646299" height="2.43496" ry="0.646299" id="_144825208"/>
          <rect width="27.6879" x="4.29168" y="44.3265" fill="#f0f0f0"  height="8.60066" id="_144821752"/>
          <rect width="29.2963" x="3.32022" y="43.6881" fill="#f0f0f0"  height="9.8195" id="_144821560"/>
         </g>
         <g  id="g3132">
          <rect width="9.03146" x="1.90233" y="11.2085" fill="#f0f0f0"  rx="1.26652" height="6.33317" ry="1.26652" id="_144822040"/>
          <rect width="8.93055" x="25.1334" y="11.2085" fill="#f0f0f0"  rx="1.26652" height="6.33317" ry="1.26652" id="_144822280"/>
         </g>
        </g>
       </g>
       <g  id="g3136">
        <g  id="g3138">
         <g  id="g3140">
          <rect width="2.65578" x="11.7454" y="13.9538" fill="#323232"  height="1.96186" id="_144827680"/>
          <rect width="2.65578" x="16.8477" y="13.9538" fill="#323232"  height="1.96186" id="_144824176"/>
          <rect width="2.25383" x="21.9563" y="13.9538" fill="#323232"  height="1.96186" id="_144822616"/>
         </g>
         <g  id="g3145">
          <path fill="none"  stroke="#78786e" id="_144828880" stroke-width="0.708661" d="m11.7442,14.8178c2.66343,0,2.66343,0,2.66343,0"/>
          <path fill="none"  stroke="#78786e" id="_144823480" stroke-width="0.216" d="M16.8471,14.6945C17.6814,14.6894,18.1395,15.0965,18.1925,15.9092"/>
         </g>
        </g>
        <g  id="g3149">
         <rect width="2.65578" x="11.7454" y="12.0132" fill="url(#linearGradient3164)"  height="1.96186" id="_144817384"/>
         <rect width="2.65578" x="16.8477" y="12.0132" fill="url(#linearGradient3166)"  height="1.96186" id="_144825040"/>
         <rect width="2.25383" x="21.9563" y="12.0132" fill="url(#linearGradient3168)"  height="1.96186" id="_144817648"/>
        </g>
       </g>
      </g>
     </g>
     <rect width="4" x="5.06049" y="58.7631" fill="none"  height="4" id="connector1"/>
     <rect width="4" x="12.4017" y="58.7631" fill="none"  height="4" id="connector2"/>
     <rect width="4" x="19.3664" y="58.9514" fill="none"  height="4" id="connector3"/>
     <rect width="4" x="26.7076" y="58.7631" fill="none"  height="4" id="connector4"/>
    </g>
   </g>
  </g>
 </g>
 <g partID="933560">
  <line stroke="#8c0000" stroke-linecap="round" y1="18.1176" x1="3.30847" y2="18.1176" stroke-width="3.2" x2="46.5085"/>
  <line stroke="#cc1414" stroke-linecap="round" y1="18.1176" x1="3.30847" y2="18.1176" stroke-width="1.6" x2="46.5085"/>
 </g>
 <g partID="933630">
  <line stroke="#999999" stroke-linecap="round" y1="32.5176" x1="3.2" y2="32.5176" stroke-width="3.2" x2="46.5085"/>
  <line stroke="#ffffff" stroke-linecap="round" y1="32.5176" x1="3.2" y2="32.5176" stroke-width="1.6" x2="46.5085"/>
 </g>
 <g partID="933660">
  <line stroke="#e6ab00" stroke-linecap="round" y1="39.7176" x1="3.2" y2="39.7176" stroke-width="3.2" x2="46.5085"/>
  <line stroke="#ffe24d" stroke-linecap="round" y1="39.7176" x1="3.2" y2="39.7176" stroke-width="1.6" x2="46.5085"/>
 </g>
 <g partID="933730">
  <line stroke="#000000" stroke-linecap="round" y1="61.3176" x1="3.41695" y2="61.3176" stroke-width="3.2" x2="46.5085"/>
  <line stroke="#404040" stroke-linecap="round" y1="61.3176" x1="3.41695" y2="61.3176" stroke-width="1.6" x2="46.5085"/>
 </g>
 <g partID="933760">
  <line stroke="#000000" stroke-linecap="round" y1="39.7176" x1="125.708" y2="61.3176" stroke-width="3.2" x2="125.708"/>
  <line stroke="#404040" stroke-linecap="round" y1="39.7176" x1="125.708" y2="61.3176" stroke-width="1.6" x2="125.708"/>
 </g>
 <g partID="933830">
  <line stroke="#1b5bb3" stroke-linecap="round" y1="3.2" x1="3.30847" y2="3.2" stroke-width="3.2" x2="125.708"/>
  <line stroke="#418dd9" stroke-linecap="round" y1="3.2" x1="3.30847" y2="3.2" stroke-width="1.6" x2="125.708"/>
 </g>
 <g partID="933860">
  <line stroke="#1b5bb3" stroke-linecap="round" y1="3.2" x1="125.708" y2="25.3176" stroke-width="3.2" x2="125.708"/>
  <line stroke="#418dd9" stroke-linecap="round" y1="3.2" x1="125.708" y2="25.3176" stroke-width="1.6" x2="125.708"/>
 </g>
</svg>
